<svg width="595" height="842" viewBox="0 0 595 842" fill="none" xmlns="http://www.w3.org/2000/svg">
<g clip-path="url(#clip0_211_638)">
<rect width="595" height="842" fill="url(#paint0_linear_211_638)"/>
<path d="M45 357.5L140.792 0H456L551.792 357.5H45Z" fill="url(#paint1_linear_211_638)"/>
<path d="M45 485L140.792 842.5H456L551.792 485H45Z" fill="url(#paint2_linear_211_638)"/>
<rect width="595" height="842" fill="black" fill-opacity="0.3"/>
<path d="M123 31.5H100L110 41.5H133L123 31.5Z" fill="url(#paint3_linear_211_638)"/>
<path d="M123 31.5H100L110 41.5H133L123 31.5Z" fill="url(#paint4_linear_211_638)"/>
<path d="M123 31.5H100L110 41.5H133L123 31.5Z" fill="url(#paint5_linear_211_638)"/>
<path d="M154 32H131L141 42H164L154 32Z" fill="url(#paint6_linear_211_638)"/>
<path d="M154 32H131L141 42H164L154 32Z" fill="url(#paint7_linear_211_638)"/>
<path d="M154 32H131L141 42H164L154 32Z" fill="url(#paint8_linear_211_638)"/>
<path d="M187 20H166L189 43H210L187 20Z" fill="url(#paint9_linear_211_638)"/>
<path d="M221 20H200L223 43H244L221 20Z" fill="url(#paint10_linear_211_638)"/>
<path d="M255 20H234L257 43H278L255 20Z" fill="url(#paint11_linear_211_638)"/>
<path d="M289 20H268L291 43H312L289 20Z" fill="url(#paint12_linear_211_638)"/>
<circle cx="36" cy="84" r="8" fill="url(#paint13_linear_211_638)"/>
<path d="M47 74L95.5 25.5H156L181 50.5H354" stroke="url(#paint14_linear_211_638)" stroke-width="3"/>
<circle cx="36" cy="84" r="14.5" stroke="url(#paint15_linear_211_638)" stroke-width="3"/>
<path d="M472 780.5H495L485 770.5H462L472 780.5Z" fill="url(#paint16_linear_211_638)"/>
<path d="M472 780.5H495L485 770.5H462L472 780.5Z" fill="url(#paint17_linear_211_638)"/>
<path d="M472 780.5H495L485 770.5H462L472 780.5Z" fill="url(#paint18_linear_211_638)"/>
<path d="M441 780H464L454 770H431L441 780Z" fill="url(#paint19_linear_211_638)"/>
<path d="M441 780H464L454 770H431L441 780Z" fill="url(#paint20_linear_211_638)"/>
<path d="M441 780H464L454 770H431L441 780Z" fill="url(#paint21_linear_211_638)"/>
<path d="M408 792H429L406 769H385L408 792Z" fill="url(#paint22_linear_211_638)"/>
<path d="M374 792H395L372 769H351L374 792Z" fill="url(#paint23_linear_211_638)"/>
<path d="M340 792H361L338 769H317L340 792Z" fill="url(#paint24_linear_211_638)"/>
<path d="M306 792H327L304 769H283L306 792Z" fill="url(#paint25_linear_211_638)"/>
<circle cx="559" cy="728" r="8" transform="rotate(180 559 728)" fill="url(#paint26_linear_211_638)"/>
<path d="M548 738L499.5 786.5H439L414 761.5H241" stroke="url(#paint27_linear_211_638)" stroke-width="3"/>
<circle cx="559" cy="728" r="14.5" transform="rotate(180 559 728)" stroke="url(#paint28_linear_211_638)" stroke-width="3"/>
<path d="M109.053 315.781L109.147 314.938H106.334V316.188H108.178L109.053 315.781ZM109.053 319.375L108.178 318.969H106.334V320.219H109.147L109.053 319.375ZM102.959 312.156H110.053L112.522 313.5L112.366 316.719L110.678 317.562L112.366 318.438L112.522 321.656L110.053 323H102.959V312.156ZM116.172 323V312.156H119.547V323H116.172ZM126.572 320.219H132.759V323H125.666L123.197 321.656V312.156H126.572V320.219ZM136.347 323L136.659 313.5L139.128 312.156H143.128L145.597 313.5L145.909 323H142.534L142.378 318.969H139.878L139.722 323H136.347ZM142.222 314.938H140.034L139.988 316.188H142.269L142.222 314.938ZM156.022 323L156.334 313.5L158.803 312.156H162.803L165.272 313.5L165.584 323H162.209L162.053 318.969H159.553L159.397 323H156.022ZM161.897 314.938H159.709L159.663 316.188H161.944L161.897 314.938ZM175.359 314.938H172.547V320.219H175.359V314.938ZM169.172 312.156H176.266L178.734 313.5V321.656L176.266 323H169.172V312.156ZM182.322 323L182.634 313.5L185.103 312.156H189.103L191.572 313.5L191.884 323H188.509L188.353 318.969H185.853L185.697 323H182.322ZM188.197 314.938H186.009L185.963 316.188H188.244L188.197 314.938ZM207.216 316.188L208.247 315.781L208.403 312.156H211.622L211.403 316.719L209.716 317.578L211.403 318.438L211.622 323H208.403L208.247 319.375L207.216 318.969H205.434V323H202.059V312.156H205.434V316.188H207.216ZM218.647 314.938V316.188H224.491V318.969H218.647V320.219H224.834V323H217.741L215.272 321.656V313.5L217.741 312.156H224.834V314.938H218.647ZM228.484 323V313.5L230.953 312.156H231.859L234.609 316.734V312.156H237.984V323H234.609L231.859 318.422V323H228.484ZM247.822 314.938H245.009V320.219H247.822V314.938ZM241.634 312.156H248.728L251.197 313.5V321.656L248.728 323H241.634V312.156ZM254.784 323L255.097 313.5L257.566 312.156H261.566L264.034 313.5L264.347 323H260.972L260.816 318.969H258.316L258.159 323H254.784ZM260.659 314.938H258.472L258.425 316.188H260.706L260.659 314.938ZM271.309 320.219H277.497V323H270.403L267.934 321.656V312.156H271.309V320.219ZM281.084 323L281.397 313.5L283.866 312.156H287.866L290.334 313.5L290.647 323H287.272L287.116 318.969H284.616L284.459 323H281.084ZM286.959 314.938H284.772L284.725 316.188H287.006L286.959 314.938ZM300.759 323L301.072 313.5L303.541 312.156H307.541L310.009 313.5L310.322 323H306.947L306.791 318.969H304.291L304.134 323H300.759ZM306.634 314.938H304.447L304.4 316.188H306.681L306.634 314.938ZM323.159 314.938H320.034V323H316.659V314.938H313.597V313.5L316.097 312.156H323.159V314.938ZM326.434 323L326.747 313.5L329.216 312.156H333.216L335.684 313.5L335.997 323H332.622L332.466 318.969H329.966L329.809 323H326.434ZM332.309 314.938H330.122L330.075 316.188H332.356L332.309 314.938ZM349.147 312.156V321.656L346.678 323H342.053L339.584 321.656V312.156H342.959V320.219H345.772V312.156H349.147ZM362.759 318.969V323H359.384V313.5L361.853 312.156H366.478L368.947 313.5V317.625L366.478 318.969H362.759ZM365.572 315.75V314.938H362.759V316.188H364.759L365.572 315.75ZM375.972 314.938V316.188H381.816V318.969H375.972V320.219H382.159V323H375.066L372.597 321.656V313.5L375.066 312.156H382.159V314.938H375.972ZM391.903 315.781L391.997 314.938H389.184V316.188H390.966L391.903 315.781ZM395.153 318.438L395.372 323H392.153L391.997 319.375L390.966 318.969H389.184V323H385.809V312.156H392.903L395.372 313.5L395.216 316.719L393.481 317.594L395.153 318.438ZM408.584 314.938H405.459V323H402.084V314.938H399.022V313.5L401.522 312.156H408.584V314.938ZM411.859 323L412.172 313.5L414.641 312.156H418.641L421.109 313.5L421.422 323H418.047L417.891 318.969H415.391L415.234 323H411.859ZM417.734 314.938H415.547L415.5 316.188H417.781L417.734 314.938ZM425.009 323V313.5L427.478 312.156H428.384L431.134 316.734V312.156H434.509V323H431.134L428.384 318.422V323H425.009ZM441.159 323V318.984L438.316 317.531L438.066 312.156H441.284L441.441 315.781L442.472 316.188H443.222L444.253 315.781L444.409 312.156H447.628L447.378 317.531L444.534 318.984V323H441.159ZM450.747 323L451.059 313.5L453.528 312.156H457.528L459.997 313.5L460.309 323H456.934L456.778 318.969H454.278L454.122 323H450.747ZM456.622 314.938H454.434L454.388 316.188H456.669L456.622 314.938ZM463.834 323L464.147 313.5L466.616 312.156H470.616L473.084 313.5L473.397 323H470.022L469.866 318.969H467.366L467.209 323H463.834ZM469.709 314.938H467.522L467.475 316.188H469.756L469.709 314.938ZM476.984 323V313.5L479.453 312.156H480.359L483.109 316.734V312.156H486.484V323H483.109L480.359 318.422V323H476.984ZM116.719 336.219H122.906V339H115.812L113.344 337.656V328.156H116.719V336.219ZM129.931 330.938V332.188H135.775V334.969H129.931V336.219H136.119V339H129.025L126.556 337.656V329.5L129.025 328.156H136.119V330.938H129.931ZM145.862 331.781L145.956 330.938H143.144V332.188H144.987L145.862 331.781ZM145.862 335.375L144.987 334.969H143.144V336.219H145.956L145.862 335.375ZM139.769 328.156H146.862L149.331 329.5L149.175 332.719L147.487 333.562L149.175 334.438L149.331 337.656L146.862 339H139.769V328.156ZM152.981 339V328.156H156.356V339H152.981ZM160.006 339V328.156H163.381V332.188H166.194V328.156H169.569V339H166.194V334.969H163.381V339H160.006ZM183.181 336.219H189.369V339H182.275L179.806 337.656V328.156H183.181V336.219ZM192.956 339L193.269 329.5L195.738 328.156H199.738L202.206 329.5L202.519 339H199.144L198.988 334.969H196.488L196.331 339H192.956ZM198.831 330.938H196.644L196.597 332.188H198.878L198.831 330.938ZM206.106 339V329.5L208.575 328.156H209.481L212.231 332.734V328.156H215.606V339H212.231L209.481 334.422V339H206.106ZM228.819 328.156V337.656L226.35 339H221.725L219.256 337.656V335.25H222.631V336.219H225.444V328.156H228.819ZM242.031 328.156V337.656L239.562 339H234.938L232.469 337.656V328.156H235.844V336.219H238.656V328.156H242.031ZM255.244 330.938H252.119V339H248.744V330.938H245.681V329.5L248.181 328.156H255.244V330.938ZM271.669 330.938H268.856V336.219H271.669V330.938ZM265.481 328.156H272.575L275.044 329.5V337.656L272.575 339H265.481V328.156ZM278.631 339L278.944 329.5L281.413 328.156H285.413L287.881 329.5L288.194 339H284.819L284.663 334.969H282.163L282.006 339H278.631ZM284.506 330.938H282.319L282.272 332.188H284.553L284.506 330.938ZM295.156 334.969V339H291.781V329.5L294.25 328.156H298.875L301.344 329.5V333.625L298.875 334.969H295.156ZM297.969 331.75V330.938H295.156V332.188H297.156L297.969 331.75ZM304.712 339L305.025 329.5L307.494 328.156H311.494L313.962 329.5L314.275 339H310.9L310.744 334.969H308.244L308.087 339H304.712ZM310.587 330.938H308.4L308.353 332.188H310.634L310.587 330.938ZM327.113 330.938H323.988V339H320.613V330.938H317.55V329.5L320.05 328.156H327.113V330.938ZM337.35 339V329.5L339.819 328.156H342.506L343.819 333.469L345.131 328.156H350.288V339H346.913V333.375L345.475 339H342.163L340.725 333.375V339H337.35ZM357.312 330.938V332.188H363.156V334.969H357.312V336.219H363.5V339H356.406L353.938 337.656V329.5L356.406 328.156H363.5V330.938H357.312ZM367.15 339V329.5L369.619 328.156H370.525L373.275 332.734V328.156H376.65V339H373.275L370.525 334.422V339H367.15ZM386.487 330.938H383.675V336.219H386.487V335.406L385.706 334.938H384.675V332.188H386.3L389.862 334.125V337.656L387.394 339H382.769L380.3 337.656V329.5L382.769 328.156H387.394L389.862 329.5V331.906H386.487V330.938ZM393.513 339V328.156H396.888V332.188H399.7V328.156H403.075V339H399.7V334.969H396.888V339H393.513ZM416.288 328.156V337.656L413.819 339H409.194L406.725 337.656V328.156H410.1V336.219H412.913V328.156H416.288ZM426.031 331.781L426.125 330.938H423.312V332.188H425.156L426.031 331.781ZM426.031 335.375L425.156 334.969H423.312V336.219H426.125L426.031 335.375ZM419.938 328.156H427.031L429.5 329.5L429.344 332.719L427.656 333.562L429.344 334.438L429.5 337.656L427.031 339H419.938V328.156ZM442.712 328.156V337.656L440.244 339H435.619L433.15 337.656V328.156H436.525V336.219H439.337V328.156H442.712ZM446.362 339V329.5L448.831 328.156H449.737L452.487 332.734V328.156H455.862V339H452.487L449.737 334.422V339H446.362ZM465.7 330.938H462.888V336.219H465.7V335.406L464.919 334.938H463.888V332.188H465.513L469.075 334.125V337.656L466.606 339H461.981L459.513 337.656V329.5L461.981 328.156H466.606L469.075 329.5V331.906H465.7V330.938ZM472.725 339V328.156H476.1V339H472.725ZM215.119 371V361.5L217.588 360.156H218.494L221.244 364.734V360.156H224.619V371H221.244L218.494 366.422V371H215.119ZM234.456 362.938H231.644V368.219H234.456V362.938ZM228.269 361.5L230.738 360.156H235.363L237.831 361.5V369.656L235.363 371H230.738L228.269 369.656V361.5ZM241.481 371V361.5L243.95 360.156H246.637L247.95 365.469L249.262 360.156H254.419V371H251.044V365.375L249.606 371H246.294L244.856 365.375V371H241.481ZM264.256 362.938H261.444V368.219H264.256V362.938ZM258.069 361.5L260.538 360.156H265.163L267.631 361.5V369.656L265.163 371H260.538L258.069 369.656V361.5ZM277.375 363.781L277.469 362.938H274.656V364.188H276.438L277.375 363.781ZM280.625 366.438L280.844 371H277.625L277.469 367.375L276.438 366.969H274.656V371H271.281V360.156H278.375L280.844 361.5L280.688 364.719L278.953 365.594L280.625 366.438ZM297.175 363.781L297.269 362.938H294.456V364.188H296.3L297.175 363.781ZM297.175 367.375L296.3 366.969H294.456V368.219H297.269L297.175 367.375ZM291.081 360.156H298.175L300.644 361.5L300.488 364.719L298.8 365.562L300.488 366.438L300.644 369.656L298.175 371H291.081V360.156ZM307.669 362.938V364.188H313.513V366.969H307.669V368.219H313.856V371H306.763L304.294 369.656V361.5L306.763 360.156H313.856V362.938H307.669ZM323.6 363.781L323.694 362.938H320.881V364.188H322.663L323.6 363.781ZM326.85 366.438L327.069 371H323.85L323.694 367.375L322.663 366.969H320.881V371H317.506V360.156H324.6L327.069 361.5L326.913 364.719L325.178 365.594L326.85 366.438ZM330.719 371V360.156H334.094V371H330.719ZM342.9 364.188L343.931 363.781L344.087 360.156H347.306L347.087 364.719L345.4 365.578L347.087 366.438L347.306 371H344.087L343.931 367.375L342.9 366.969H341.119V371H337.744V360.156H341.119V364.188H342.9ZM360.519 360.156V369.656L358.05 371H353.425L350.956 369.656V360.156H354.331V368.219H357.144V360.156H360.519ZM373.731 362.938H370.606V371H367.231V362.938H364.169V361.5L366.669 360.156H373.731V362.938ZM377.444 369.281V366.5H380.819V369.281H377.444ZM377.444 364.656V361.875H380.819V364.656H377.444Z" fill="#DFDFDF"/>
<path d="M257.425 444V431.641H259.472V436.781H264.472V431.641H266.519V444H264.472V438.516H259.472V444H257.425ZM271.262 440.734V434.984H273.247V440.484C273.247 441.891 273.742 442.594 274.731 442.594C275.325 442.594 275.789 442.344 276.122 441.844C276.455 441.333 276.622 440.729 276.622 440.031V434.984H278.591V444H276.684V442.953H276.669C276.523 443.276 276.242 443.578 275.825 443.859C275.419 444.141 274.908 444.281 274.294 444.281C273.929 444.281 273.58 444.224 273.247 444.109C272.924 444.005 272.606 443.833 272.294 443.594C271.981 443.344 271.731 442.974 271.544 442.484C271.356 441.995 271.262 441.411 271.262 440.734ZM283.147 444V434.984H285.069V436.031C285.225 435.729 285.506 435.432 285.912 435.141C286.319 434.849 286.808 434.703 287.381 434.703C288.371 434.703 289.1 435.24 289.569 436.312C289.642 436.167 289.735 436.021 289.85 435.875C289.975 435.729 290.142 435.557 290.35 435.359C290.569 435.161 290.845 435.005 291.178 434.891C291.522 434.766 291.892 434.703 292.287 434.703C294.131 434.703 295.053 435.87 295.053 438.203V444H293.053V438.266C293.053 437.641 292.965 437.172 292.787 436.859C292.61 436.547 292.298 436.391 291.85 436.391C291.319 436.391 290.886 436.615 290.553 437.062C290.23 437.5 290.069 438.042 290.069 438.688V444H288.116V438.219C288.116 437 287.709 436.391 286.897 436.391C286.334 436.391 285.897 436.599 285.584 437.016C285.282 437.432 285.131 437.979 285.131 438.656V444H283.147ZM300.953 441.469C300.953 441.802 301.083 442.083 301.344 442.312C301.615 442.531 301.969 442.641 302.406 442.641C303.031 442.641 303.562 442.432 304 442.016C304.448 441.599 304.672 441.052 304.672 440.375V439.547C304.193 439.661 303.615 439.771 302.938 439.875C301.615 440.083 300.953 440.615 300.953 441.469ZM298.953 441.641C298.953 439.943 300.214 438.906 302.734 438.531C303.651 438.396 304.297 438.271 304.672 438.156V437.672C304.672 437.234 304.516 436.891 304.203 436.641C303.891 436.391 303.474 436.266 302.953 436.266C301.964 436.266 301.109 436.672 300.391 437.484L299.188 436.453C299.656 435.901 300.214 435.474 300.859 435.172C301.516 434.859 302.203 434.703 302.922 434.703C304.266 434.703 305.224 435.031 305.797 435.688C306.37 436.333 306.656 437.24 306.656 438.406V444H304.734V442.875C304.547 443.26 304.219 443.594 303.75 443.875C303.292 444.146 302.75 444.281 302.125 444.281C301.135 444.281 300.359 444.036 299.797 443.547C299.234 443.057 298.953 442.422 298.953 441.641ZM310.119 434.984H312.291L313.837 439.625C314.098 440.479 314.296 441.172 314.431 441.703H314.494C314.546 441.516 314.739 440.823 315.072 439.625L316.494 434.984H318.65L314.916 445.188C314.582 446.104 314.15 446.75 313.619 447.125C313.098 447.5 312.447 447.688 311.666 447.688H311.056V446.031H311.337C311.806 446.031 312.186 445.927 312.478 445.719C312.78 445.521 313.02 445.172 313.197 444.672L313.494 443.781L310.119 434.984ZM322.238 444V434.984H324.144V435.953C324.342 435.62 324.623 435.328 324.988 435.078C325.363 434.828 325.805 434.703 326.316 434.703C326.795 434.703 327.185 434.771 327.488 434.906V436.703C327.092 436.578 326.701 436.516 326.316 436.516C325.639 436.516 325.118 436.781 324.753 437.312C324.399 437.833 324.222 438.531 324.222 439.406V444H322.238ZM332.309 441.469C332.309 441.802 332.44 442.083 332.7 442.312C332.971 442.531 333.325 442.641 333.762 442.641C334.387 442.641 334.919 442.432 335.356 442.016C335.804 441.599 336.028 441.052 336.028 440.375V439.547C335.549 439.661 334.971 439.771 334.294 439.875C332.971 440.083 332.309 440.615 332.309 441.469ZM330.309 441.641C330.309 439.943 331.57 438.906 334.091 438.531C335.007 438.396 335.653 438.271 336.028 438.156V437.672C336.028 437.234 335.872 436.891 335.559 436.641C335.247 436.391 334.83 436.266 334.309 436.266C333.32 436.266 332.466 436.672 331.747 437.484L330.544 436.453C331.012 435.901 331.57 435.474 332.216 435.172C332.872 434.859 333.559 434.703 334.278 434.703C335.622 434.703 336.58 435.031 337.153 435.688C337.726 436.333 338.012 437.24 338.012 438.406V444H336.091V442.875C335.903 443.26 335.575 443.594 335.106 443.875C334.648 444.146 334.106 444.281 333.481 444.281C332.492 444.281 331.716 444.036 331.153 443.547C330.591 443.057 330.309 442.422 330.309 441.641Z" fill="white"/>
<path d="M272.812 510V497.641H280.688V499.406H274.875V502.938H280.078V504.672H274.875V510H272.812ZM284.494 499.641V497.469H286.619V499.641H284.494ZM284.587 510V500.984H286.541V510H284.587ZM290.487 502.672V500.984H291.878V498.312H293.847V500.984H295.909V502.672H293.847V507.109C293.847 507.536 293.93 507.844 294.097 508.031C294.274 508.219 294.54 508.312 294.894 508.312H295.925V510H294.644C292.8 510 291.878 509.083 291.878 507.25V502.672H290.487ZM299.872 510V500.984H301.778V501.953C301.976 501.62 302.257 501.328 302.622 501.078C302.997 500.828 303.44 500.703 303.95 500.703C304.429 500.703 304.82 500.771 305.122 500.906V502.703C304.726 502.578 304.335 502.516 303.95 502.516C303.273 502.516 302.752 502.781 302.388 503.312C302.033 503.833 301.856 504.531 301.856 505.406V510H299.872ZM308.662 499.641V497.469H310.787V499.641H308.662ZM308.756 510V500.984H310.709V510H308.756ZM316.922 507.469C316.922 507.802 317.052 508.083 317.312 508.312C317.583 508.531 317.938 508.641 318.375 508.641C319 508.641 319.531 508.432 319.969 508.016C320.417 507.599 320.641 507.052 320.641 506.375V505.547C320.161 505.661 319.583 505.771 318.906 505.875C317.583 506.083 316.922 506.615 316.922 507.469ZM314.922 507.641C314.922 505.943 316.182 504.906 318.703 504.531C319.62 504.396 320.266 504.271 320.641 504.156V503.672C320.641 503.234 320.484 502.891 320.172 502.641C319.859 502.391 319.443 502.266 318.922 502.266C317.932 502.266 317.078 502.672 316.359 503.484L315.156 502.453C315.625 501.901 316.182 501.474 316.828 501.172C317.484 500.859 318.172 500.703 318.891 500.703C320.234 500.703 321.193 501.031 321.766 501.688C322.339 502.333 322.625 503.24 322.625 504.406V510H320.703V508.875C320.516 509.26 320.188 509.594 319.719 509.875C319.26 510.146 318.719 510.281 318.094 510.281C317.104 510.281 316.328 510.036 315.766 509.547C315.203 509.057 314.922 508.422 314.922 507.641Z" fill="white"/>
<path d="M188.377 457.188H190.236L191.267 461.953C191.413 462.661 191.569 463.458 191.736 464.344H191.798C191.923 463.708 192.085 462.911 192.283 461.953L193.361 457.188H195.22L196.298 462C196.33 462.146 196.403 462.495 196.517 463.047C196.632 463.589 196.72 464.021 196.783 464.344H196.845C196.981 463.688 197.137 462.891 197.314 461.953L198.345 457.188H200.205L197.814 466H195.83L194.783 461.391C194.512 460.057 194.356 459.276 194.314 459.047H194.252C194.002 460.359 193.851 461.141 193.798 461.391L192.752 466H190.767L188.377 457.188ZM204.87 463.594C204.87 463.948 205.011 464.245 205.292 464.484C205.584 464.724 205.974 464.844 206.464 464.844C207.131 464.844 207.698 464.63 208.167 464.203C208.636 463.766 208.87 463.198 208.87 462.5V461.547C208.391 461.661 207.761 461.781 206.98 461.906C206.271 462.021 205.74 462.214 205.386 462.484C205.042 462.755 204.87 463.125 204.87 463.594ZM203.12 463.734C203.12 462.089 204.365 461.073 206.855 460.688C207.886 460.531 208.558 460.401 208.87 460.297V459.812C208.87 459.344 208.698 458.974 208.355 458.703C208.021 458.422 207.568 458.281 206.995 458.281C205.985 458.281 205.126 458.693 204.417 459.516L203.355 458.609C203.803 458.078 204.339 457.661 204.964 457.359C205.599 457.057 206.266 456.906 206.964 456.906C209.381 456.906 210.589 458.094 210.589 460.469V466H208.917V464.781C208.74 465.188 208.407 465.542 207.917 465.844C207.428 466.135 206.86 466.281 206.214 466.281C205.256 466.281 204.501 466.047 203.948 465.578C203.396 465.099 203.12 464.484 203.12 463.734ZM215.692 466V463.766H218.098V466H215.692ZM223.327 466V457.188H224.998V458.312C225.155 457.979 225.436 457.661 225.842 457.359C226.248 457.057 226.743 456.906 227.327 456.906C228.327 456.906 229.051 457.474 229.498 458.609C229.561 458.474 229.649 458.328 229.764 458.172C229.889 458.005 230.056 457.823 230.264 457.625C230.483 457.417 230.759 457.245 231.092 457.109C231.436 456.974 231.811 456.906 232.217 456.906C233.998 456.906 234.889 458.047 234.889 460.328V466H233.139V460.406C233.139 459.729 233.045 459.224 232.858 458.891C232.681 458.547 232.342 458.375 231.842 458.375C231.29 458.375 230.837 458.604 230.483 459.062C230.129 459.521 229.952 460.094 229.952 460.781V466H228.248V460.359C228.248 459.036 227.806 458.375 226.92 458.375C226.337 458.375 225.879 458.594 225.545 459.031C225.222 459.458 225.061 460.026 225.061 460.734V466H223.327ZM238.914 461.547C238.914 460.151 239.294 459.031 240.055 458.188C240.826 457.333 241.799 456.906 242.977 456.906C244.154 456.906 245.107 457.328 245.836 458.172C246.576 459.016 246.945 460.104 246.945 461.438C246.945 461.458 246.93 461.703 246.898 462.172H240.648C240.648 462.911 240.862 463.547 241.289 464.078C241.716 464.609 242.31 464.875 243.07 464.875C243.581 464.875 244.034 464.75 244.43 464.5C244.826 464.25 245.128 463.927 245.336 463.531L246.773 464.016C246.492 464.672 246.034 465.214 245.398 465.641C244.773 466.068 243.992 466.281 243.055 466.281C241.826 466.281 240.826 465.854 240.055 465C239.294 464.135 238.914 462.984 238.914 461.547ZM240.68 460.938H245.195C245.195 460.198 244.997 459.573 244.602 459.062C244.206 458.552 243.664 458.297 242.977 458.297C242.279 458.297 241.727 458.557 241.32 459.078C240.914 459.599 240.701 460.219 240.68 460.938ZM249.673 466.891L254.345 453.078H256.158L251.486 466.891H249.673ZM260.933 462.156C260.933 462.958 261.126 463.604 261.511 464.094C261.896 464.573 262.402 464.812 263.027 464.812C263.631 464.812 264.126 464.573 264.511 464.094C264.907 463.615 265.105 462.969 265.105 462.156C265.105 461.333 264.907 460.688 264.511 460.219C264.126 459.74 263.626 459.5 263.011 459.5C262.407 459.5 261.907 459.75 261.511 460.25C261.126 460.74 260.933 461.375 260.933 462.156ZM259.058 460.516C259.058 459.599 259.136 458.74 259.292 457.938C259.459 457.135 259.709 456.401 260.042 455.734C260.376 455.068 260.829 454.542 261.402 454.156C261.985 453.771 262.657 453.578 263.417 453.578C264.98 453.578 266.115 454.38 266.823 455.984L265.417 456.469C264.907 455.521 264.245 455.047 263.433 455.047C262.214 455.047 261.422 456.047 261.058 458.047C260.954 458.536 260.886 459.005 260.855 459.453C261.053 459.036 261.36 458.698 261.777 458.438C262.204 458.167 262.698 458.031 263.261 458.031C264.334 458.031 265.209 458.422 265.886 459.203C266.573 459.974 266.917 460.953 266.917 462.141C266.917 463.328 266.573 464.318 265.886 465.109C265.209 465.891 264.277 466.281 263.089 466.281C261.87 466.281 260.912 465.849 260.214 464.984C259.443 464.047 259.058 462.557 259.058 460.516ZM270.677 456.766C270.906 455.776 271.338 455 271.973 454.438C272.619 453.865 273.453 453.578 274.473 453.578C275.546 453.578 276.427 453.885 277.114 454.5C277.802 455.115 278.145 455.958 278.145 457.031C278.145 458.24 277.52 459.443 276.27 460.641C276.156 460.745 275.916 460.974 275.552 461.328C275.187 461.682 274.947 461.917 274.833 462.031C274.729 462.135 274.541 462.328 274.27 462.609C274.01 462.88 273.822 463.099 273.708 463.266C273.593 463.422 273.458 463.615 273.302 463.844C273.156 464.073 273.031 464.302 272.927 464.531H278.114V466H270.77C270.77 465.542 270.848 465.083 271.005 464.625C271.171 464.167 271.359 463.76 271.567 463.406C271.776 463.052 272.078 462.651 272.473 462.203C272.869 461.745 273.203 461.38 273.473 461.109C273.755 460.828 274.14 460.458 274.63 460C274.744 459.896 274.828 459.818 274.88 459.766C275.828 458.87 276.302 457.948 276.302 457C276.302 456.385 276.135 455.906 275.802 455.562C275.468 455.219 275.02 455.047 274.458 455.047C273.874 455.047 273.39 455.24 273.005 455.625C272.63 456.01 272.359 456.542 272.192 457.219L270.677 456.766ZM284.327 456.953C284.327 457.526 284.498 457.99 284.842 458.344C285.196 458.698 285.629 458.875 286.139 458.875C286.66 458.875 287.087 458.698 287.42 458.344C287.764 457.979 287.936 457.516 287.936 456.953C287.936 456.411 287.769 455.958 287.436 455.594C287.103 455.229 286.67 455.047 286.139 455.047C285.597 455.047 285.16 455.229 284.827 455.594C284.493 455.958 284.327 456.411 284.327 456.953ZM282.123 462.688C282.123 461.865 282.337 461.193 282.764 460.672C283.202 460.151 283.712 459.781 284.295 459.562C283.097 458.99 282.498 458.094 282.498 456.875C282.498 455.927 282.842 455.141 283.53 454.516C284.228 453.891 285.097 453.578 286.139 453.578C287.181 453.578 288.045 453.891 288.733 454.516C289.431 455.141 289.78 455.927 289.78 456.875C289.78 457.531 289.608 458.083 289.264 458.531C288.92 458.979 288.488 459.323 287.967 459.562C288.582 459.781 289.103 460.156 289.53 460.688C289.957 461.219 290.17 461.891 290.17 462.703C290.17 463.766 289.795 464.63 289.045 465.297C288.295 465.953 287.327 466.281 286.139 466.281C285.014 466.281 284.061 465.964 283.28 465.328C282.509 464.682 282.123 463.802 282.123 462.688ZM283.952 462.594C283.952 463.229 284.155 463.76 284.561 464.188C284.978 464.604 285.504 464.812 286.139 464.812C286.774 464.812 287.295 464.604 287.702 464.188C288.118 463.76 288.327 463.229 288.327 462.594C288.327 461.969 288.118 461.438 287.702 461C287.295 460.552 286.774 460.328 286.139 460.328C285.514 460.328 284.993 460.547 284.577 460.984C284.16 461.422 283.952 461.958 283.952 462.594ZM293.789 463.844L295.273 463.297C295.471 463.745 295.763 464.109 296.148 464.391C296.534 464.672 296.961 464.812 297.43 464.812C298.117 464.812 298.659 464.578 299.055 464.109C299.461 463.641 299.664 463.026 299.664 462.266C299.664 461.516 299.451 460.901 299.023 460.422C298.596 459.943 298.049 459.703 297.383 459.703C296.591 459.703 295.893 460.073 295.289 460.812L294.18 460.375L294.805 453.859H300.82V455.328H296.445L296.055 458.828C296.607 458.443 297.258 458.25 298.008 458.25C299.039 458.25 299.878 458.609 300.523 459.328C301.18 460.047 301.508 461.016 301.508 462.234C301.508 462.755 301.43 463.25 301.273 463.719C301.117 464.188 300.883 464.62 300.57 465.016C300.258 465.401 299.836 465.708 299.305 465.938C298.773 466.167 298.164 466.281 297.477 466.281C296.581 466.281 295.82 466.062 295.195 465.625C294.581 465.177 294.112 464.583 293.789 463.844ZM305.423 455.375V453.859H313.08V455.078C311.09 458.276 309.627 461.958 308.689 466.125H306.845C307.564 462.542 308.949 458.958 311.002 455.375H305.423ZM319.136 456.953C319.136 457.526 319.308 457.99 319.652 458.344C320.006 458.698 320.438 458.875 320.948 458.875C321.469 458.875 321.896 458.698 322.23 458.344C322.573 457.979 322.745 457.516 322.745 456.953C322.745 456.411 322.579 455.958 322.245 455.594C321.912 455.229 321.48 455.047 320.948 455.047C320.407 455.047 319.969 455.229 319.636 455.594C319.303 455.958 319.136 456.411 319.136 456.953ZM316.933 462.688C316.933 461.865 317.146 461.193 317.573 460.672C318.011 460.151 318.521 459.781 319.105 459.562C317.907 458.99 317.308 458.094 317.308 456.875C317.308 455.927 317.652 455.141 318.339 454.516C319.037 453.891 319.907 453.578 320.948 453.578C321.99 453.578 322.855 453.891 323.542 454.516C324.24 455.141 324.589 455.927 324.589 456.875C324.589 457.531 324.417 458.083 324.073 458.531C323.73 458.979 323.297 459.323 322.777 459.562C323.391 459.781 323.912 460.156 324.339 460.688C324.766 461.219 324.98 461.891 324.98 462.703C324.98 463.766 324.605 464.63 323.855 465.297C323.105 465.953 322.136 466.281 320.948 466.281C319.823 466.281 318.87 465.964 318.089 465.328C317.318 464.682 316.933 463.802 316.933 462.688ZM318.761 462.594C318.761 463.229 318.964 463.76 319.37 464.188C319.787 464.604 320.313 464.812 320.948 464.812C321.584 464.812 322.105 464.604 322.511 464.188C322.928 463.76 323.136 463.229 323.136 462.594C323.136 461.969 322.928 461.438 322.511 461C322.105 460.552 321.584 460.328 320.948 460.328C320.323 460.328 319.803 460.547 319.386 460.984C318.969 461.422 318.761 461.958 318.761 462.594ZM328.692 456.766C328.921 455.776 329.354 455 329.989 454.438C330.635 453.865 331.468 453.578 332.489 453.578C333.562 453.578 334.442 453.885 335.13 454.5C335.817 455.115 336.161 455.958 336.161 457.031C336.161 458.24 335.536 459.443 334.286 460.641C334.171 460.745 333.932 460.974 333.567 461.328C333.203 461.682 332.963 461.917 332.848 462.031C332.744 462.135 332.557 462.328 332.286 462.609C332.026 462.88 331.838 463.099 331.723 463.266C331.609 463.422 331.473 463.615 331.317 463.844C331.171 464.073 331.046 464.302 330.942 464.531H336.13V466H328.786C328.786 465.542 328.864 465.083 329.02 464.625C329.187 464.167 329.374 463.76 329.583 463.406C329.791 463.052 330.093 462.651 330.489 462.203C330.885 461.745 331.218 461.38 331.489 461.109C331.77 460.828 332.156 460.458 332.645 460C332.76 459.896 332.843 459.818 332.895 459.766C333.843 458.87 334.317 457.948 334.317 457C334.317 456.385 334.151 455.906 333.817 455.562C333.484 455.219 333.036 455.047 332.473 455.047C331.89 455.047 331.406 455.24 331.02 455.625C330.645 456.01 330.374 456.542 330.208 457.219L328.692 456.766ZM340.295 456.766C340.524 455.776 340.957 455 341.592 454.438C342.238 453.865 343.071 453.578 344.092 453.578C345.165 453.578 346.045 453.885 346.733 454.5C347.42 455.115 347.764 455.958 347.764 457.031C347.764 458.24 347.139 459.443 345.889 460.641C345.774 460.745 345.535 460.974 345.17 461.328C344.806 461.682 344.566 461.917 344.452 462.031C344.347 462.135 344.16 462.328 343.889 462.609C343.629 462.88 343.441 463.099 343.327 463.266C343.212 463.422 343.077 463.615 342.92 463.844C342.774 464.073 342.649 464.302 342.545 464.531H347.733V466H340.389C340.389 465.542 340.467 465.083 340.623 464.625C340.79 464.167 340.978 463.76 341.186 463.406C341.394 463.052 341.696 462.651 342.092 462.203C342.488 461.745 342.821 461.38 343.092 461.109C343.373 460.828 343.759 460.458 344.248 460C344.363 459.896 344.446 459.818 344.498 459.766C345.446 458.87 345.92 457.948 345.92 457C345.92 456.385 345.754 455.906 345.42 455.562C345.087 455.219 344.639 455.047 344.077 455.047C343.493 455.047 343.009 455.24 342.623 455.625C342.248 456.01 341.978 456.542 341.811 457.219L340.295 456.766ZM351.508 461.969L356.93 453.734H358.477V461.938H360.055V463.406H358.477V466.125H356.695V463.406H351.508V461.969ZM353.211 461.938H356.695V458.125C356.695 457.531 356.716 456.958 356.758 456.406H356.695C356.581 456.615 356.404 456.906 356.164 457.281C355.935 457.656 355.805 457.87 355.773 457.922L353.211 461.938ZM365.548 456.953C365.548 457.526 365.72 457.99 366.064 458.344C366.418 458.698 366.851 458.875 367.361 458.875C367.882 458.875 368.309 458.698 368.642 458.344C368.986 457.979 369.158 457.516 369.158 456.953C369.158 456.411 368.991 455.958 368.658 455.594C368.324 455.229 367.892 455.047 367.361 455.047C366.819 455.047 366.382 455.229 366.048 455.594C365.715 455.958 365.548 456.411 365.548 456.953ZM363.345 462.688C363.345 461.865 363.559 461.193 363.986 460.672C364.423 460.151 364.934 459.781 365.517 459.562C364.319 458.99 363.72 458.094 363.72 456.875C363.72 455.927 364.064 455.141 364.752 454.516C365.449 453.891 366.319 453.578 367.361 453.578C368.403 453.578 369.267 453.891 369.955 454.516C370.653 455.141 371.002 455.927 371.002 456.875C371.002 457.531 370.83 458.083 370.486 458.531C370.142 458.979 369.71 459.323 369.189 459.562C369.804 459.781 370.324 460.156 370.752 460.688C371.179 461.219 371.392 461.891 371.392 462.703C371.392 463.766 371.017 464.63 370.267 465.297C369.517 465.953 368.548 466.281 367.361 466.281C366.236 466.281 365.283 465.964 364.502 465.328C363.731 464.682 363.345 463.802 363.345 462.688ZM365.173 462.594C365.173 463.229 365.377 463.76 365.783 464.188C366.199 464.604 366.726 464.812 367.361 464.812C367.996 464.812 368.517 464.604 368.923 464.188C369.34 463.76 369.548 463.229 369.548 462.594C369.548 461.969 369.34 461.438 368.923 461C368.517 460.552 367.996 460.328 367.361 460.328C366.736 460.328 366.215 460.547 365.798 460.984C365.382 461.422 365.173 461.958 365.173 462.594ZM376.87 459.938C376.87 460.885 376.933 461.708 377.058 462.406C377.183 463.104 377.407 463.682 377.73 464.141C378.063 464.589 378.48 464.812 378.98 464.812C379.365 464.812 379.693 464.682 379.964 464.422C380.245 464.151 380.459 463.776 380.605 463.297C380.761 462.818 380.87 462.307 380.933 461.766C381.006 461.214 381.042 460.604 381.042 459.938C381.042 459.25 381.006 458.62 380.933 458.047C380.86 457.474 380.74 456.958 380.573 456.5C380.417 456.042 380.198 455.688 379.917 455.438C379.646 455.177 379.323 455.047 378.948 455.047C378.459 455.047 378.053 455.276 377.73 455.734C377.407 456.182 377.183 456.76 377.058 457.469C376.933 458.167 376.87 458.99 376.87 459.938ZM375.027 459.938C375.027 458.76 375.141 457.74 375.37 456.875C375.599 456.01 375.912 455.349 376.308 454.891C376.704 454.432 377.12 454.099 377.558 453.891C377.995 453.682 378.459 453.578 378.948 453.578C380.198 453.578 381.167 454.135 381.855 455.25C382.542 456.354 382.886 457.917 382.886 459.938C382.886 461.865 382.553 463.406 381.886 464.562C381.23 465.708 380.261 466.281 378.98 466.281C378.49 466.281 378.027 466.177 377.589 465.969C377.152 465.76 376.735 465.427 376.339 464.969C375.943 464.51 375.626 463.849 375.386 462.984C375.146 462.12 375.027 461.104 375.027 459.938ZM388.473 459.938C388.473 460.885 388.536 461.708 388.661 462.406C388.786 463.104 389.01 463.682 389.333 464.141C389.666 464.589 390.083 464.812 390.583 464.812C390.968 464.812 391.296 464.682 391.567 464.422C391.848 464.151 392.062 463.776 392.208 463.297C392.364 462.818 392.473 462.307 392.536 461.766C392.609 461.214 392.645 460.604 392.645 459.938C392.645 459.25 392.609 458.62 392.536 458.047C392.463 457.474 392.343 456.958 392.177 456.5C392.02 456.042 391.802 455.688 391.52 455.438C391.249 455.177 390.927 455.047 390.552 455.047C390.062 455.047 389.656 455.276 389.333 455.734C389.01 456.182 388.786 456.76 388.661 457.469C388.536 458.167 388.473 458.99 388.473 459.938ZM386.63 459.938C386.63 458.76 386.744 457.74 386.973 456.875C387.203 456.01 387.515 455.349 387.911 454.891C388.307 454.432 388.723 454.099 389.161 453.891C389.598 453.682 390.062 453.578 390.552 453.578C391.802 453.578 392.77 454.135 393.458 455.25C394.145 456.354 394.489 457.917 394.489 459.938C394.489 461.865 394.156 463.406 393.489 464.562C392.833 465.708 391.864 466.281 390.583 466.281C390.093 466.281 389.63 466.177 389.192 465.969C388.755 465.76 388.338 465.427 387.942 464.969C387.546 464.51 387.229 463.849 386.989 462.984C386.749 462.12 386.63 461.104 386.63 459.938ZM398.311 456.766C398.54 455.776 398.972 455 399.608 454.438C400.254 453.865 401.087 453.578 402.108 453.578C403.181 453.578 404.061 453.885 404.748 454.5C405.436 455.115 405.78 455.958 405.78 457.031C405.78 458.24 405.155 459.443 403.905 460.641C403.79 460.745 403.551 460.974 403.186 461.328C402.821 461.682 402.582 461.917 402.467 462.031C402.363 462.135 402.176 462.328 401.905 462.609C401.644 462.88 401.457 463.099 401.342 463.266C401.228 463.422 401.092 463.615 400.936 463.844C400.79 464.073 400.665 464.302 400.561 464.531H405.748V466H398.405C398.405 465.542 398.483 465.083 398.639 464.625C398.806 464.167 398.993 463.76 399.202 463.406C399.41 463.052 399.712 462.651 400.108 462.203C400.504 461.745 400.837 461.38 401.108 461.109C401.389 460.828 401.774 460.458 402.264 460C402.379 459.896 402.462 459.818 402.514 459.766C403.462 458.87 403.936 457.948 403.936 457C403.936 456.385 403.769 455.906 403.436 455.562C403.103 455.219 402.655 455.047 402.092 455.047C401.509 455.047 401.024 455.24 400.639 455.625C400.264 456.01 399.993 456.542 399.827 457.219L398.311 456.766Z" fill="#C80075"/>
<path d="M188.377 523.188H190.236L191.267 527.953C191.413 528.661 191.569 529.458 191.736 530.344H191.798C191.923 529.708 192.085 528.911 192.283 527.953L193.361 523.188H195.22L196.298 528C196.33 528.146 196.403 528.495 196.517 529.047C196.632 529.589 196.72 530.021 196.783 530.344H196.845C196.981 529.688 197.137 528.891 197.314 527.953L198.345 523.188H200.205L197.814 532H195.83L194.783 527.391C194.512 526.057 194.356 525.276 194.314 525.047H194.252C194.002 526.359 193.851 527.141 193.798 527.391L192.752 532H190.767L188.377 523.188ZM204.87 529.594C204.87 529.948 205.011 530.245 205.292 530.484C205.584 530.724 205.974 530.844 206.464 530.844C207.131 530.844 207.698 530.63 208.167 530.203C208.636 529.766 208.87 529.198 208.87 528.5V527.547C208.391 527.661 207.761 527.781 206.98 527.906C206.271 528.021 205.74 528.214 205.386 528.484C205.042 528.755 204.87 529.125 204.87 529.594ZM203.12 529.734C203.12 528.089 204.365 527.073 206.855 526.688C207.886 526.531 208.558 526.401 208.87 526.297V525.812C208.87 525.344 208.698 524.974 208.355 524.703C208.021 524.422 207.568 524.281 206.995 524.281C205.985 524.281 205.126 524.693 204.417 525.516L203.355 524.609C203.803 524.078 204.339 523.661 204.964 523.359C205.599 523.057 206.266 522.906 206.964 522.906C209.381 522.906 210.589 524.094 210.589 526.469V532H208.917V530.781C208.74 531.188 208.407 531.542 207.917 531.844C207.428 532.135 206.86 532.281 206.214 532.281C205.256 532.281 204.501 532.047 203.948 531.578C203.396 531.099 203.12 530.484 203.12 529.734ZM215.692 532V529.766H218.098V532H215.692ZM223.327 532V523.188H224.998V524.312C225.155 523.979 225.436 523.661 225.842 523.359C226.248 523.057 226.743 522.906 227.327 522.906C228.327 522.906 229.051 523.474 229.498 524.609C229.561 524.474 229.649 524.328 229.764 524.172C229.889 524.005 230.056 523.823 230.264 523.625C230.483 523.417 230.759 523.245 231.092 523.109C231.436 522.974 231.811 522.906 232.217 522.906C233.998 522.906 234.889 524.047 234.889 526.328V532H233.139V526.406C233.139 525.729 233.045 525.224 232.858 524.891C232.681 524.547 232.342 524.375 231.842 524.375C231.29 524.375 230.837 524.604 230.483 525.062C230.129 525.521 229.952 526.094 229.952 526.781V532H228.248V526.359C228.248 525.036 227.806 524.375 226.92 524.375C226.337 524.375 225.879 524.594 225.545 525.031C225.222 525.458 225.061 526.026 225.061 526.734V532H223.327ZM238.914 527.547C238.914 526.151 239.294 525.031 240.055 524.188C240.826 523.333 241.799 522.906 242.977 522.906C244.154 522.906 245.107 523.328 245.836 524.172C246.576 525.016 246.945 526.104 246.945 527.438C246.945 527.458 246.93 527.703 246.898 528.172H240.648C240.648 528.911 240.862 529.547 241.289 530.078C241.716 530.609 242.31 530.875 243.07 530.875C243.581 530.875 244.034 530.75 244.43 530.5C244.826 530.25 245.128 529.927 245.336 529.531L246.773 530.016C246.492 530.672 246.034 531.214 245.398 531.641C244.773 532.068 243.992 532.281 243.055 532.281C241.826 532.281 240.826 531.854 240.055 531C239.294 530.135 238.914 528.984 238.914 527.547ZM240.68 526.938H245.195C245.195 526.198 244.997 525.573 244.602 525.062C244.206 524.552 243.664 524.297 242.977 524.297C242.279 524.297 241.727 524.557 241.32 525.078C240.914 525.599 240.701 526.219 240.68 526.938ZM249.673 532.891L254.345 519.078H256.158L251.486 532.891H249.673ZM260.933 528.156C260.933 528.958 261.126 529.604 261.511 530.094C261.896 530.573 262.402 530.812 263.027 530.812C263.631 530.812 264.126 530.573 264.511 530.094C264.907 529.615 265.105 528.969 265.105 528.156C265.105 527.333 264.907 526.688 264.511 526.219C264.126 525.74 263.626 525.5 263.011 525.5C262.407 525.5 261.907 525.75 261.511 526.25C261.126 526.74 260.933 527.375 260.933 528.156ZM259.058 526.516C259.058 525.599 259.136 524.74 259.292 523.938C259.459 523.135 259.709 522.401 260.042 521.734C260.376 521.068 260.829 520.542 261.402 520.156C261.985 519.771 262.657 519.578 263.417 519.578C264.98 519.578 266.115 520.38 266.823 521.984L265.417 522.469C264.907 521.521 264.245 521.047 263.433 521.047C262.214 521.047 261.422 522.047 261.058 524.047C260.954 524.536 260.886 525.005 260.855 525.453C261.053 525.036 261.36 524.698 261.777 524.438C262.204 524.167 262.698 524.031 263.261 524.031C264.334 524.031 265.209 524.422 265.886 525.203C266.573 525.974 266.917 526.953 266.917 528.141C266.917 529.328 266.573 530.318 265.886 531.109C265.209 531.891 264.277 532.281 263.089 532.281C261.87 532.281 260.912 531.849 260.214 530.984C259.443 530.047 259.058 528.557 259.058 526.516ZM270.677 522.766C270.906 521.776 271.338 521 271.973 520.438C272.619 519.865 273.453 519.578 274.473 519.578C275.546 519.578 276.427 519.885 277.114 520.5C277.802 521.115 278.145 521.958 278.145 523.031C278.145 524.24 277.52 525.443 276.27 526.641C276.156 526.745 275.916 526.974 275.552 527.328C275.187 527.682 274.947 527.917 274.833 528.031C274.729 528.135 274.541 528.328 274.27 528.609C274.01 528.88 273.822 529.099 273.708 529.266C273.593 529.422 273.458 529.615 273.302 529.844C273.156 530.073 273.031 530.302 272.927 530.531H278.114V532H270.77C270.77 531.542 270.848 531.083 271.005 530.625C271.171 530.167 271.359 529.76 271.567 529.406C271.776 529.052 272.078 528.651 272.473 528.203C272.869 527.745 273.203 527.38 273.473 527.109C273.755 526.828 274.14 526.458 274.63 526C274.744 525.896 274.828 525.818 274.88 525.766C275.828 524.87 276.302 523.948 276.302 523C276.302 522.385 276.135 521.906 275.802 521.562C275.468 521.219 275.02 521.047 274.458 521.047C273.874 521.047 273.39 521.24 273.005 521.625C272.63 522.01 272.359 522.542 272.192 523.219L270.677 522.766ZM284.327 522.953C284.327 523.526 284.498 523.99 284.842 524.344C285.196 524.698 285.629 524.875 286.139 524.875C286.66 524.875 287.087 524.698 287.42 524.344C287.764 523.979 287.936 523.516 287.936 522.953C287.936 522.411 287.769 521.958 287.436 521.594C287.103 521.229 286.67 521.047 286.139 521.047C285.597 521.047 285.16 521.229 284.827 521.594C284.493 521.958 284.327 522.411 284.327 522.953ZM282.123 528.688C282.123 527.865 282.337 527.193 282.764 526.672C283.202 526.151 283.712 525.781 284.295 525.562C283.097 524.99 282.498 524.094 282.498 522.875C282.498 521.927 282.842 521.141 283.53 520.516C284.228 519.891 285.097 519.578 286.139 519.578C287.181 519.578 288.045 519.891 288.733 520.516C289.431 521.141 289.78 521.927 289.78 522.875C289.78 523.531 289.608 524.083 289.264 524.531C288.92 524.979 288.488 525.323 287.967 525.562C288.582 525.781 289.103 526.156 289.53 526.688C289.957 527.219 290.17 527.891 290.17 528.703C290.17 529.766 289.795 530.63 289.045 531.297C288.295 531.953 287.327 532.281 286.139 532.281C285.014 532.281 284.061 531.964 283.28 531.328C282.509 530.682 282.123 529.802 282.123 528.688ZM283.952 528.594C283.952 529.229 284.155 529.76 284.561 530.188C284.978 530.604 285.504 530.812 286.139 530.812C286.774 530.812 287.295 530.604 287.702 530.188C288.118 529.76 288.327 529.229 288.327 528.594C288.327 527.969 288.118 527.438 287.702 527C287.295 526.552 286.774 526.328 286.139 526.328C285.514 526.328 284.993 526.547 284.577 526.984C284.16 527.422 283.952 527.958 283.952 528.594ZM293.883 522.766C294.112 521.776 294.544 521 295.18 520.438C295.826 519.865 296.659 519.578 297.68 519.578C298.753 519.578 299.633 519.885 300.32 520.5C301.008 521.115 301.352 521.958 301.352 523.031C301.352 524.24 300.727 525.443 299.477 526.641C299.362 526.745 299.122 526.974 298.758 527.328C298.393 527.682 298.154 527.917 298.039 528.031C297.935 528.135 297.747 528.328 297.477 528.609C297.216 528.88 297.029 529.099 296.914 529.266C296.799 529.422 296.664 529.615 296.508 529.844C296.362 530.073 296.237 530.302 296.133 530.531H301.32V532H293.977C293.977 531.542 294.055 531.083 294.211 530.625C294.378 530.167 294.565 529.76 294.773 529.406C294.982 529.052 295.284 528.651 295.68 528.203C296.076 527.745 296.409 527.38 296.68 527.109C296.961 526.828 297.346 526.458 297.836 526C297.951 525.896 298.034 525.818 298.086 525.766C299.034 524.87 299.508 523.948 299.508 523C299.508 522.385 299.341 521.906 299.008 521.562C298.674 521.219 298.227 521.047 297.664 521.047C297.081 521.047 296.596 521.24 296.211 521.625C295.836 522.01 295.565 522.542 295.398 523.219L293.883 522.766ZM306.173 523.203V521.844H306.705C308.34 521.844 309.158 521.255 309.158 520.078V519.75H310.705V532.141H308.877V523.203H306.173ZM317.777 523.203V521.844H318.308C319.943 521.844 320.761 521.255 320.761 520.078V519.75H322.308V532.141H320.48V523.203H317.777ZM330.458 525.938C330.458 526.885 330.52 527.708 330.645 528.406C330.77 529.104 330.994 529.682 331.317 530.141C331.651 530.589 332.067 530.812 332.567 530.812C332.953 530.812 333.281 530.682 333.552 530.422C333.833 530.151 334.046 529.776 334.192 529.297C334.348 528.818 334.458 528.307 334.52 527.766C334.593 527.214 334.63 526.604 334.63 525.938C334.63 525.25 334.593 524.62 334.52 524.047C334.447 523.474 334.328 522.958 334.161 522.5C334.005 522.042 333.786 521.688 333.505 521.438C333.234 521.177 332.911 521.047 332.536 521.047C332.046 521.047 331.64 521.276 331.317 521.734C330.994 522.182 330.77 522.76 330.645 523.469C330.52 524.167 330.458 524.99 330.458 525.938ZM328.614 525.938C328.614 524.76 328.729 523.74 328.958 522.875C329.187 522.01 329.499 521.349 329.895 520.891C330.291 520.432 330.708 520.099 331.145 519.891C331.583 519.682 332.046 519.578 332.536 519.578C333.786 519.578 334.755 520.135 335.442 521.25C336.13 522.354 336.473 523.917 336.473 525.938C336.473 527.865 336.14 529.406 335.473 530.562C334.817 531.708 333.848 532.281 332.567 532.281C332.078 532.281 331.614 532.177 331.177 531.969C330.739 531.76 330.322 531.427 329.927 530.969C329.531 530.51 329.213 529.849 328.973 528.984C328.734 528.12 328.614 527.104 328.614 525.938ZM342.155 528.156C342.155 528.958 342.347 529.604 342.733 530.094C343.118 530.573 343.623 530.812 344.248 530.812C344.853 530.812 345.347 530.573 345.733 530.094C346.129 529.615 346.327 528.969 346.327 528.156C346.327 527.333 346.129 526.688 345.733 526.219C345.347 525.74 344.847 525.5 344.233 525.5C343.629 525.5 343.129 525.75 342.733 526.25C342.347 526.74 342.155 527.375 342.155 528.156ZM340.28 526.516C340.28 525.599 340.358 524.74 340.514 523.938C340.681 523.135 340.931 522.401 341.264 521.734C341.597 521.068 342.051 520.542 342.623 520.156C343.207 519.771 343.879 519.578 344.639 519.578C346.202 519.578 347.337 520.38 348.045 521.984L346.639 522.469C346.129 521.521 345.467 521.047 344.655 521.047C343.436 521.047 342.644 522.047 342.28 524.047C342.176 524.536 342.108 525.005 342.077 525.453C342.274 525.036 342.582 524.698 342.998 524.438C343.426 524.167 343.92 524.031 344.483 524.031C345.556 524.031 346.431 524.422 347.108 525.203C347.795 525.974 348.139 526.953 348.139 528.141C348.139 529.328 347.795 530.318 347.108 531.109C346.431 531.891 345.498 532.281 344.311 532.281C343.092 532.281 342.134 531.849 341.436 530.984C340.665 530.047 340.28 528.557 340.28 526.516ZM351.836 521.375V519.859H359.492V521.078C357.503 524.276 356.039 527.958 355.102 532.125H353.258C353.977 528.542 355.362 524.958 357.414 521.375H351.836ZM363.502 522.766C363.731 521.776 364.163 521 364.798 520.438C365.444 519.865 366.278 519.578 367.298 519.578C368.371 519.578 369.252 519.885 369.939 520.5C370.627 521.115 370.97 521.958 370.97 523.031C370.97 524.24 370.345 525.443 369.095 526.641C368.981 526.745 368.741 526.974 368.377 527.328C368.012 527.682 367.772 527.917 367.658 528.031C367.554 528.135 367.366 528.328 367.095 528.609C366.835 528.88 366.647 529.099 366.533 529.266C366.418 529.422 366.283 529.615 366.127 529.844C365.981 530.073 365.856 530.302 365.752 530.531H370.939V532H363.595C363.595 531.542 363.673 531.083 363.83 530.625C363.996 530.167 364.184 529.76 364.392 529.406C364.601 529.052 364.903 528.651 365.298 528.203C365.694 527.745 366.028 527.38 366.298 527.109C366.58 526.828 366.965 526.458 367.455 526C367.569 525.896 367.653 525.818 367.705 525.766C368.653 524.87 369.127 523.948 369.127 523C369.127 522.385 368.96 521.906 368.627 521.562C368.293 521.219 367.845 521.047 367.283 521.047C366.699 521.047 366.215 521.24 365.83 521.625C365.455 522.01 365.184 522.542 365.017 523.219L363.502 522.766ZM375.011 529.844L376.495 529.297C376.693 529.745 376.985 530.109 377.37 530.391C377.756 530.672 378.183 530.812 378.652 530.812C379.339 530.812 379.881 530.578 380.277 530.109C380.683 529.641 380.886 529.026 380.886 528.266C380.886 527.516 380.672 526.901 380.245 526.422C379.818 525.943 379.271 525.703 378.605 525.703C377.813 525.703 377.115 526.073 376.511 526.812L375.402 526.375L376.027 519.859H382.042V521.328H377.667L377.277 524.828C377.829 524.443 378.48 524.25 379.23 524.25C380.261 524.25 381.099 524.609 381.745 525.328C382.402 526.047 382.73 527.016 382.73 528.234C382.73 528.755 382.652 529.25 382.495 529.719C382.339 530.188 382.105 530.62 381.792 531.016C381.48 531.401 381.058 531.708 380.527 531.938C379.995 532.167 379.386 532.281 378.698 532.281C377.803 532.281 377.042 532.062 376.417 531.625C375.803 531.177 375.334 530.583 375.011 529.844ZM386.645 521.375V519.859H394.302V521.078C392.312 524.276 390.848 527.958 389.911 532.125H388.067C388.786 528.542 390.171 524.958 392.223 521.375H386.645ZM398.311 522.766C398.54 521.776 398.972 521 399.608 520.438C400.254 519.865 401.087 519.578 402.108 519.578C403.181 519.578 404.061 519.885 404.748 520.5C405.436 521.115 405.78 521.958 405.78 523.031C405.78 524.24 405.155 525.443 403.905 526.641C403.79 526.745 403.551 526.974 403.186 527.328C402.821 527.682 402.582 527.917 402.467 528.031C402.363 528.135 402.176 528.328 401.905 528.609C401.644 528.88 401.457 529.099 401.342 529.266C401.228 529.422 401.092 529.615 400.936 529.844C400.79 530.073 400.665 530.302 400.561 530.531H405.748V532H398.405C398.405 531.542 398.483 531.083 398.639 530.625C398.806 530.167 398.993 529.76 399.202 529.406C399.41 529.052 399.712 528.651 400.108 528.203C400.504 527.745 400.837 527.38 401.108 527.109C401.389 526.828 401.774 526.458 402.264 526C402.379 525.896 402.462 525.818 402.514 525.766C403.462 524.87 403.936 523.948 403.936 523C403.936 522.385 403.769 521.906 403.436 521.562C403.103 521.219 402.655 521.047 402.092 521.047C401.509 521.047 401.024 521.24 400.639 521.625C400.264 522.01 399.993 522.542 399.827 523.219L398.311 522.766Z" fill="#C80075"/>
<mask id="path-27-outside-1_211_638" maskUnits="userSpaceOnUse" x="135" y="254" width="324" height="30" fill="black">
<rect fill="white" x="135" y="254" width="324" height="30"/>
<path d="M136.878 283V259.25L143.05 255.891H145.315L152.19 267.336V255.891H160.628V283H152.19L145.315 271.555V283H136.878ZM169.597 283L170.378 259.25L176.55 255.891H186.55L192.722 259.25L193.503 283H185.065L184.675 272.922H178.425L178.034 283H169.597ZM184.284 262.844H178.815L178.698 265.969H184.401L184.284 262.844ZM217.706 264.953L217.94 262.844H210.909V265.969H215.362L217.706 264.953ZM225.831 271.594L226.378 283H218.331L217.94 273.938L215.362 272.922H210.909V283H202.472V255.891H220.206L226.378 259.25L225.987 267.297L221.651 269.484L225.831 271.594ZM235.347 283L236.128 259.25L242.3 255.891H252.3L258.472 259.25L259.253 283H250.815L250.425 272.922H244.175L243.784 283H235.347ZM250.034 262.844H244.565L244.448 265.969H250.151L250.034 262.844ZM268.222 283V255.891H276.659V265.969H283.69V255.891H292.128V283H283.69V272.922H276.659V283H268.222ZM325.159 255.891V279.641L318.987 283H307.425L301.253 279.641V255.891H309.69V276.047H316.722V255.891H325.159ZM349.519 264.953L349.753 262.844H342.722V265.969H347.331L349.519 264.953ZM349.519 273.938L347.331 272.922H342.722V276.047H349.753L349.519 273.938ZM334.284 255.891H352.019L358.19 259.25L357.8 267.297L353.581 269.406L357.8 271.594L358.19 279.641L352.019 283H334.284V255.891ZM391.222 255.891V279.641L385.05 283H373.487L367.315 279.641V255.891H375.753V276.047H382.784V255.891H391.222ZM400.347 283V259.25L406.519 255.891H408.784L415.659 267.336V255.891H424.097V283H415.659L408.784 271.555V283H400.347ZM448.69 262.844H441.659V276.047H448.69V274.016L446.737 272.844H444.159V265.969H448.222L457.128 270.812V279.641L450.956 283H439.394L433.222 279.641V259.25L439.394 255.891H450.956L457.128 259.25V265.266H448.69V262.844Z"/>
</mask>
<path d="M136.878 283H135.878V284H136.878V283ZM136.878 259.25L136.4 258.372L135.878 258.656V259.25H136.878ZM143.05 255.891V254.891H142.795L142.572 255.012L143.05 255.891ZM145.315 255.891L146.173 255.376L145.881 254.891H145.315V255.891ZM152.19 267.336L151.333 267.851L153.19 270.943V267.336H152.19ZM152.19 255.891V254.891H151.19V255.891H152.19ZM160.628 255.891H161.628V254.891H160.628V255.891ZM160.628 283V284H161.628V283H160.628ZM152.19 283L151.333 283.515L151.625 284H152.19V283ZM145.315 271.555L146.173 271.04L144.315 267.948V271.555H145.315ZM145.315 283V284H146.315V283H145.315ZM136.878 283H137.878V259.25H136.878H135.878V283H136.878ZM136.878 259.25L137.356 260.128L143.528 256.769L143.05 255.891L142.572 255.012L136.4 258.372L136.878 259.25ZM143.05 255.891V256.891H145.315V255.891V254.891H143.05V255.891ZM145.315 255.891L144.458 256.406L151.333 267.851L152.19 267.336L153.048 266.821L146.173 255.376L145.315 255.891ZM152.19 267.336H153.19V255.891H152.19H151.19V267.336H152.19ZM152.19 255.891V256.891H160.628V255.891V254.891H152.19V255.891ZM160.628 255.891H159.628V283H160.628H161.628V255.891H160.628ZM160.628 283V282H152.19V283V284H160.628V283ZM152.19 283L153.048 282.485L146.173 271.04L145.315 271.555L144.458 272.07L151.333 283.515L152.19 283ZM145.315 271.555H144.315V283H145.315H146.315V271.555H145.315ZM145.315 283V282H136.878V283V284H145.315V283ZM169.597 283L168.597 282.967L168.563 284H169.597V283ZM170.378 259.25L169.9 258.372L169.397 258.645L169.378 259.217L170.378 259.25ZM176.55 255.891V254.891H176.295L176.072 255.012L176.55 255.891ZM186.55 255.891L187.028 255.012L186.804 254.891H186.55V255.891ZM192.722 259.25L193.721 259.217L193.702 258.645L193.2 258.372L192.722 259.25ZM193.503 283V284H194.536L194.502 282.967L193.503 283ZM185.065 283L184.066 283.039L184.103 284H185.065V283ZM184.675 272.922L185.674 272.883L185.637 271.922H184.675V272.922ZM178.425 272.922V271.922H177.463L177.426 272.883L178.425 272.922ZM178.034 283V284H178.996L179.033 283.039L178.034 283ZM184.284 262.844L185.283 262.806L185.247 261.844H184.284V262.844ZM178.815 262.844V261.844H177.852L177.816 262.806L178.815 262.844ZM178.698 265.969L177.699 265.931L177.66 266.969H178.698V265.969ZM184.401 265.969V266.969H185.44L185.401 265.931L184.401 265.969ZM169.597 283L170.596 283.033L171.377 259.283L170.378 259.25L169.378 259.217L168.597 282.967L169.597 283ZM170.378 259.25L170.856 260.128L177.028 256.769L176.55 255.891L176.072 255.012L169.9 258.372L170.378 259.25ZM176.55 255.891V256.891H186.55V255.891V254.891H176.55V255.891ZM186.55 255.891L186.072 256.769L192.244 260.128L192.722 259.25L193.2 258.372L187.028 255.012L186.55 255.891ZM192.722 259.25L191.722 259.283L192.503 283.033L193.503 283L194.502 282.967L193.721 259.217L192.722 259.25ZM193.503 283V282H185.065V283V284H193.503V283ZM185.065 283L186.065 282.961L185.674 272.883L184.675 272.922L183.676 272.961L184.066 283.039L185.065 283ZM184.675 272.922V271.922H178.425V272.922V273.922H184.675V272.922ZM178.425 272.922L177.426 272.883L177.035 282.961L178.034 283L179.033 283.039L179.424 272.961L178.425 272.922ZM178.034 283V282H169.597V283V284H178.034V283ZM184.284 262.844V261.844H178.815V262.844V263.844H184.284V262.844ZM178.815 262.844L177.816 262.806L177.699 265.931L178.698 265.969L179.698 266.006L179.815 262.881L178.815 262.844ZM178.698 265.969V266.969H184.401V265.969V264.969H178.698V265.969ZM184.401 265.969L185.401 265.931L185.283 262.806L184.284 262.844L183.285 262.881L183.402 266.006L184.401 265.969ZM217.706 264.953L218.104 265.871L218.636 265.64L218.7 265.064L217.706 264.953ZM217.94 262.844L218.934 262.954L219.058 261.844H217.94V262.844ZM210.909 262.844V261.844H209.909V262.844H210.909ZM210.909 265.969H209.909V266.969H210.909V265.969ZM215.362 265.969V266.969H215.57L215.76 266.886L215.362 265.969ZM225.831 271.594L226.83 271.546L226.802 270.964L226.282 270.701L225.831 271.594ZM226.378 283V284H227.427L227.377 282.952L226.378 283ZM218.331 283L217.332 283.043L217.373 284H218.331V283ZM217.94 273.938L218.939 273.894L218.911 273.245L218.307 273.007L217.94 273.938ZM215.362 272.922L215.729 271.991L215.552 271.922H215.362V272.922ZM210.909 272.922V271.922H209.909V272.922H210.909ZM210.909 283V284H211.909V283H210.909ZM202.472 283H201.472V284H202.472V283ZM202.472 255.891V254.891H201.472V255.891H202.472ZM220.206 255.891L220.684 255.012L220.461 254.891H220.206V255.891ZM226.378 259.25L227.377 259.298L227.407 258.672L226.856 258.372L226.378 259.25ZM225.987 267.297L226.438 268.19L226.958 267.927L226.986 267.345L225.987 267.297ZM221.651 269.484L221.201 268.592L219.432 269.484L221.201 270.377L221.651 269.484ZM217.706 264.953L218.7 265.064L218.934 262.954L217.94 262.844L216.947 262.733L216.712 264.843L217.706 264.953ZM217.94 262.844V261.844H210.909V262.844V263.844H217.94V262.844ZM210.909 262.844H209.909V265.969H210.909H211.909V262.844H210.909ZM210.909 265.969V266.969H215.362V265.969V264.969H210.909V265.969ZM215.362 265.969L215.76 266.886L218.104 265.871L217.706 264.953L217.308 264.036L214.965 265.051L215.362 265.969ZM225.831 271.594L224.832 271.642L225.379 283.048L226.378 283L227.377 282.952L226.83 271.546L225.831 271.594ZM226.378 283V282H218.331V283V284H226.378V283ZM218.331 283L219.33 282.957L218.939 273.894L217.94 273.938L216.941 273.981L217.332 283.043L218.331 283ZM217.94 273.938L218.307 273.007L215.729 271.991L215.362 272.922L214.996 273.852L217.574 274.868L217.94 273.938ZM215.362 272.922V271.922H210.909V272.922V273.922H215.362V272.922ZM210.909 272.922H209.909V283H210.909H211.909V272.922H210.909ZM210.909 283V282H202.472V283V284H210.909V283ZM202.472 283H203.472V255.891H202.472H201.472V283H202.472ZM202.472 255.891V256.891H220.206V255.891V254.891H202.472V255.891ZM220.206 255.891L219.728 256.769L225.9 260.128L226.378 259.25L226.856 258.372L220.684 255.012L220.206 255.891ZM226.378 259.25L225.379 259.202L224.988 267.248L225.987 267.297L226.986 267.345L227.377 259.298L226.378 259.25ZM225.987 267.297L225.537 266.404L221.201 268.592L221.651 269.484L222.102 270.377L226.438 268.19L225.987 267.297ZM221.651 269.484L221.201 270.377L225.38 272.487L225.831 271.594L226.282 270.701L222.102 268.592L221.651 269.484ZM235.347 283L234.347 282.967L234.313 284H235.347V283ZM236.128 259.25L235.65 258.372L235.147 258.645L235.128 259.217L236.128 259.25ZM242.3 255.891V254.891H242.045L241.822 255.012L242.3 255.891ZM252.3 255.891L252.778 255.012L252.554 254.891H252.3V255.891ZM258.472 259.25L259.471 259.217L259.452 258.645L258.95 258.372L258.472 259.25ZM259.253 283V284H260.286L260.252 282.967L259.253 283ZM250.815 283L249.816 283.039L249.853 284H250.815V283ZM250.425 272.922L251.424 272.883L251.387 271.922H250.425V272.922ZM244.175 272.922V271.922H243.213L243.176 272.883L244.175 272.922ZM243.784 283V284H244.746L244.783 283.039L243.784 283ZM250.034 262.844L251.033 262.806L250.997 261.844H250.034V262.844ZM244.565 262.844V261.844H243.602L243.566 262.806L244.565 262.844ZM244.448 265.969L243.449 265.931L243.41 266.969H244.448V265.969ZM250.151 265.969V266.969H251.19L251.151 265.931L250.151 265.969ZM235.347 283L236.346 283.033L237.127 259.283L236.128 259.25L235.128 259.217L234.347 282.967L235.347 283ZM236.128 259.25L236.606 260.128L242.778 256.769L242.3 255.891L241.822 255.012L235.65 258.372L236.128 259.25ZM242.3 255.891V256.891H252.3V255.891V254.891H242.3V255.891ZM252.3 255.891L251.822 256.769L257.994 260.128L258.472 259.25L258.95 258.372L252.778 255.012L252.3 255.891ZM258.472 259.25L257.472 259.283L258.253 283.033L259.253 283L260.252 282.967L259.471 259.217L258.472 259.25ZM259.253 283V282H250.815V283V284H259.253V283ZM250.815 283L251.815 282.961L251.424 272.883L250.425 272.922L249.426 272.961L249.816 283.039L250.815 283ZM250.425 272.922V271.922H244.175V272.922V273.922H250.425V272.922ZM244.175 272.922L243.176 272.883L242.785 282.961L243.784 283L244.783 283.039L245.174 272.961L244.175 272.922ZM243.784 283V282H235.347V283V284H243.784V283ZM250.034 262.844V261.844H244.565V262.844V263.844H250.034V262.844ZM244.565 262.844L243.566 262.806L243.449 265.931L244.448 265.969L245.448 266.006L245.565 262.881L244.565 262.844ZM244.448 265.969V266.969H250.151V265.969V264.969H244.448V265.969ZM250.151 265.969L251.151 265.931L251.033 262.806L250.034 262.844L249.035 262.881L249.152 266.006L250.151 265.969ZM268.222 283H267.222V284H268.222V283ZM268.222 255.891V254.891H267.222V255.891H268.222ZM276.659 255.891H277.659V254.891H276.659V255.891ZM276.659 265.969H275.659V266.969H276.659V265.969ZM283.69 265.969V266.969H284.69V265.969H283.69ZM283.69 255.891V254.891H282.69V255.891H283.69ZM292.128 255.891H293.128V254.891H292.128V255.891ZM292.128 283V284H293.128V283H292.128ZM283.69 283H282.69V284H283.69V283ZM283.69 272.922H284.69V271.922H283.69V272.922ZM276.659 272.922V271.922H275.659V272.922H276.659ZM276.659 283V284H277.659V283H276.659ZM268.222 283H269.222V255.891H268.222H267.222V283H268.222ZM268.222 255.891V256.891H276.659V255.891V254.891H268.222V255.891ZM276.659 255.891H275.659V265.969H276.659H277.659V255.891H276.659ZM276.659 265.969V266.969H283.69V265.969V264.969H276.659V265.969ZM283.69 265.969H284.69V255.891H283.69H282.69V265.969H283.69ZM283.69 255.891V256.891H292.128V255.891V254.891H283.69V255.891ZM292.128 255.891H291.128V283H292.128H293.128V255.891H292.128ZM292.128 283V282H283.69V283V284H292.128V283ZM283.69 283H284.69V272.922H283.69H282.69V283H283.69ZM283.69 272.922V271.922H276.659V272.922V273.922H283.69V272.922ZM276.659 272.922H275.659V283H276.659H277.659V272.922H276.659ZM276.659 283V282H268.222V283V284H276.659V283ZM325.159 255.891H326.159V254.891H325.159V255.891ZM325.159 279.641L325.637 280.519L326.159 280.235V279.641H325.159ZM318.987 283V284H319.242L319.465 283.878L318.987 283ZM307.425 283L306.947 283.878L307.17 284H307.425V283ZM301.253 279.641H300.253V280.235L300.775 280.519L301.253 279.641ZM301.253 255.891V254.891H300.253V255.891H301.253ZM309.69 255.891H310.69V254.891H309.69V255.891ZM309.69 276.047H308.69V277.047H309.69V276.047ZM316.722 276.047V277.047H317.722V276.047H316.722ZM316.722 255.891V254.891H315.722V255.891H316.722ZM325.159 255.891H324.159V279.641H325.159H326.159V255.891H325.159ZM325.159 279.641L324.681 278.762L318.509 282.122L318.987 283L319.465 283.878L325.637 280.519L325.159 279.641ZM318.987 283V282H307.425V283V284H318.987V283ZM307.425 283L307.903 282.122L301.731 278.762L301.253 279.641L300.775 280.519L306.947 283.878L307.425 283ZM301.253 279.641H302.253V255.891H301.253H300.253V279.641H301.253ZM301.253 255.891V256.891H309.69V255.891V254.891H301.253V255.891ZM309.69 255.891H308.69V276.047H309.69H310.69V255.891H309.69ZM309.69 276.047V277.047H316.722V276.047V275.047H309.69V276.047ZM316.722 276.047H317.722V255.891H316.722H315.722V276.047H316.722ZM316.722 255.891V256.891H325.159V255.891V254.891H316.722V255.891ZM349.519 264.953L349.94 265.86L350.45 265.623L350.512 265.064L349.519 264.953ZM349.753 262.844L350.747 262.954L350.87 261.844H349.753V262.844ZM342.722 262.844V261.844H341.722V262.844H342.722ZM342.722 265.969H341.722V266.969H342.722V265.969ZM347.331 265.969V266.969H347.552L347.752 266.876L347.331 265.969ZM349.519 273.938L350.512 273.827L350.45 273.268L349.94 273.03L349.519 273.938ZM347.331 272.922L347.752 272.015L347.552 271.922H347.331V272.922ZM342.722 272.922V271.922H341.722V272.922H342.722ZM342.722 276.047H341.722V277.047H342.722V276.047ZM349.753 276.047V277.047H350.87L350.747 275.936L349.753 276.047ZM334.284 255.891V254.891H333.284V255.891H334.284ZM352.019 255.891L352.497 255.012L352.273 254.891H352.019V255.891ZM358.19 259.25L359.189 259.298L359.22 258.672L358.668 258.372L358.19 259.25ZM357.8 267.297L358.247 268.191L358.77 267.93L358.799 267.345L357.8 267.297ZM353.581 269.406L353.134 268.512L351.377 269.39L353.121 270.294L353.581 269.406ZM357.8 271.594L358.799 271.545L358.771 270.971L358.26 270.706L357.8 271.594ZM358.19 279.641L358.668 280.519L359.22 280.219L359.189 279.592L358.19 279.641ZM352.019 283V284H352.273L352.497 283.878L352.019 283ZM334.284 283H333.284V284H334.284V283ZM349.519 264.953L350.512 265.064L350.747 262.954L349.753 262.844L348.759 262.733L348.525 264.843L349.519 264.953ZM349.753 262.844V261.844H342.722V262.844V263.844H349.753V262.844ZM342.722 262.844H341.722V265.969H342.722H343.722V262.844H342.722ZM342.722 265.969V266.969H347.331V265.969V264.969H342.722V265.969ZM347.331 265.969L347.752 266.876L349.94 265.86L349.519 264.953L349.097 264.046L346.91 265.062L347.331 265.969ZM349.519 273.938L349.94 273.03L347.752 272.015L347.331 272.922L346.91 273.829L349.097 274.845L349.519 273.938ZM347.331 272.922V271.922H342.722V272.922V273.922H347.331V272.922ZM342.722 272.922H341.722V276.047H342.722H343.722V272.922H342.722ZM342.722 276.047V277.047H349.753V276.047V275.047H342.722V276.047ZM349.753 276.047L350.747 275.936L350.512 273.827L349.519 273.938L348.525 274.048L348.759 276.157L349.753 276.047ZM334.284 255.891V256.891H352.019V255.891V254.891H334.284V255.891ZM352.019 255.891L351.54 256.769L357.712 260.128L358.19 259.25L358.668 258.372L352.497 255.012L352.019 255.891ZM358.19 259.25L357.192 259.202L356.801 267.248L357.8 267.297L358.799 267.345L359.189 259.298L358.19 259.25ZM357.8 267.297L357.353 266.402L353.134 268.512L353.581 269.406L354.028 270.301L358.247 268.191L357.8 267.297ZM353.581 269.406L353.121 270.294L357.339 272.482L357.8 271.594L358.26 270.706L354.041 268.518L353.581 269.406ZM357.8 271.594L356.801 271.642L357.192 279.689L358.19 279.641L359.189 279.592L358.799 271.545L357.8 271.594ZM358.19 279.641L357.712 278.762L351.54 282.122L352.019 283L352.497 283.878L358.668 280.519L358.19 279.641ZM352.019 283V282H334.284V283V284H352.019V283ZM334.284 283H335.284V255.891H334.284H333.284V283H334.284ZM391.222 255.891H392.222V254.891H391.222V255.891ZM391.222 279.641L391.7 280.519L392.222 280.235V279.641H391.222ZM385.05 283V284H385.304L385.528 283.878L385.05 283ZM373.487 283L373.009 283.878L373.233 284H373.487V283ZM367.315 279.641H366.315V280.235L366.837 280.519L367.315 279.641ZM367.315 255.891V254.891H366.315V255.891H367.315ZM375.753 255.891H376.753V254.891H375.753V255.891ZM375.753 276.047H374.753V277.047H375.753V276.047ZM382.784 276.047V277.047H383.784V276.047H382.784ZM382.784 255.891V254.891H381.784V255.891H382.784ZM391.222 255.891H390.222V279.641H391.222H392.222V255.891H391.222ZM391.222 279.641L390.744 278.762L384.572 282.122L385.05 283L385.528 283.878L391.7 280.519L391.222 279.641ZM385.05 283V282H373.487V283V284H385.05V283ZM373.487 283L373.965 282.122L367.793 278.762L367.315 279.641L366.837 280.519L373.009 283.878L373.487 283ZM367.315 279.641H368.315V255.891H367.315H366.315V279.641H367.315ZM367.315 255.891V256.891H375.753V255.891V254.891H367.315V255.891ZM375.753 255.891H374.753V276.047H375.753H376.753V255.891H375.753ZM375.753 276.047V277.047H382.784V276.047V275.047H375.753V276.047ZM382.784 276.047H383.784V255.891H382.784H381.784V276.047H382.784ZM382.784 255.891V256.891H391.222V255.891V254.891H382.784V255.891ZM400.347 283H399.347V284H400.347V283ZM400.347 259.25L399.869 258.372L399.347 258.656V259.25H400.347ZM406.519 255.891V254.891H406.264L406.04 255.012L406.519 255.891ZM408.784 255.891L409.641 255.376L409.35 254.891H408.784V255.891ZM415.659 267.336L414.802 267.851L416.659 270.943V267.336H415.659ZM415.659 255.891V254.891H414.659V255.891H415.659ZM424.097 255.891H425.097V254.891H424.097V255.891ZM424.097 283V284H425.097V283H424.097ZM415.659 283L414.802 283.515L415.093 284H415.659V283ZM408.784 271.555L409.641 271.04L407.784 267.948V271.555H408.784ZM408.784 283V284H409.784V283H408.784ZM400.347 283H401.347V259.25H400.347H399.347V283H400.347ZM400.347 259.25L400.825 260.128L406.997 256.769L406.519 255.891L406.04 255.012L399.869 258.372L400.347 259.25ZM406.519 255.891V256.891H408.784V255.891V254.891H406.519V255.891ZM408.784 255.891L407.927 256.406L414.802 267.851L415.659 267.336L416.516 266.821L409.641 255.376L408.784 255.891ZM415.659 267.336H416.659V255.891H415.659H414.659V267.336H415.659ZM415.659 255.891V256.891H424.097V255.891V254.891H415.659V255.891ZM424.097 255.891H423.097V283H424.097H425.097V255.891H424.097ZM424.097 283V282H415.659V283V284H424.097V283ZM415.659 283L416.516 282.485L409.641 271.04L408.784 271.555L407.927 272.07L414.802 283.515L415.659 283ZM408.784 271.555H407.784V283H408.784H409.784V271.555H408.784ZM408.784 283V282H400.347V283V284H408.784V283ZM448.69 262.844H449.69V261.844H448.69V262.844ZM441.659 262.844V261.844H440.659V262.844H441.659ZM441.659 276.047H440.659V277.047H441.659V276.047ZM448.69 276.047V277.047H449.69V276.047H448.69ZM448.69 274.016H449.69V273.449L449.205 273.158L448.69 274.016ZM446.737 272.844L447.252 271.986L447.014 271.844H446.737V272.844ZM444.159 272.844H443.159V273.844H444.159V272.844ZM444.159 265.969V264.969H443.159V265.969H444.159ZM448.222 265.969L448.699 265.09L448.476 264.969H448.222V265.969ZM457.128 270.812H458.128V270.218L457.606 269.934L457.128 270.812ZM457.128 279.641L457.606 280.519L458.128 280.235V279.641H457.128ZM450.956 283V284H451.211L451.434 283.878L450.956 283ZM439.394 283L438.915 283.878L439.139 284H439.394V283ZM433.222 279.641H432.222V280.235L432.744 280.519L433.222 279.641ZM433.222 259.25L432.744 258.372L432.222 258.656V259.25H433.222ZM439.394 255.891V254.891H439.139L438.915 255.012L439.394 255.891ZM450.956 255.891L451.434 255.012L451.211 254.891H450.956V255.891ZM457.128 259.25H458.128V258.656L457.606 258.372L457.128 259.25ZM457.128 265.266V266.266H458.128V265.266H457.128ZM448.69 265.266H447.69V266.266H448.69V265.266ZM448.69 262.844V261.844H441.659V262.844V263.844H448.69V262.844ZM441.659 262.844H440.659V276.047H441.659H442.659V262.844H441.659ZM441.659 276.047V277.047H448.69V276.047V275.047H441.659V276.047ZM448.69 276.047H449.69V274.016H448.69H447.69V276.047H448.69ZM448.69 274.016L449.205 273.158L447.252 271.986L446.737 272.844L446.223 273.701L448.176 274.873L448.69 274.016ZM446.737 272.844V271.844H444.159V272.844V273.844H446.737V272.844ZM444.159 272.844H445.159V265.969H444.159H443.159V272.844H444.159ZM444.159 265.969V266.969H448.222V265.969V264.969H444.159V265.969ZM448.222 265.969L447.744 266.847L456.65 271.691L457.128 270.812L457.606 269.934L448.699 265.09L448.222 265.969ZM457.128 270.812H456.128V279.641H457.128H458.128V270.812H457.128ZM457.128 279.641L456.65 278.762L450.478 282.122L450.956 283L451.434 283.878L457.606 280.519L457.128 279.641ZM450.956 283V282H439.394V283V284H450.956V283ZM439.394 283L439.872 282.122L433.7 278.762L433.222 279.641L432.744 280.519L438.915 283.878L439.394 283ZM433.222 279.641H434.222V259.25H433.222H432.222V279.641H433.222ZM433.222 259.25L433.7 260.128L439.872 256.769L439.394 255.891L438.915 255.012L432.744 258.372L433.222 259.25ZM439.394 255.891V256.891H450.956V255.891V254.891H439.394V255.891ZM450.956 255.891L450.478 256.769L456.65 260.128L457.128 259.25L457.606 258.372L451.434 255.012L450.956 255.891ZM457.128 259.25H456.128V265.266H457.128H458.128V259.25H457.128ZM457.128 265.266V264.266H448.69V265.266V266.266H457.128V265.266ZM448.69 265.266H449.69V262.844H448.69H447.69V265.266H448.69Z" fill="white" mask="url(#path-27-outside-1_211_638)"/>
<g filter="url(#filter0_d_211_638)">
<path d="M137.872 281V257.25L144.044 253.891H146.31L153.185 265.336V253.891H161.622V281H153.185L146.31 269.555V281H137.872ZM170.591 281L171.372 257.25L177.544 253.891H187.544L193.716 257.25L194.497 281H186.06L185.669 270.922H179.419L179.028 281H170.591ZM185.278 260.844H179.81L179.692 263.969H185.395L185.278 260.844ZM218.7 262.953L218.935 260.844H211.903V263.969H216.356L218.7 262.953ZM226.825 269.594L227.372 281H219.325L218.935 271.938L216.356 270.922H211.903V281H203.466V253.891H221.2L227.372 257.25L226.981 265.297L222.645 267.484L226.825 269.594ZM236.341 281L237.122 257.25L243.294 253.891H253.294L259.466 257.25L260.247 281H251.81L251.419 270.922H245.169L244.778 281H236.341ZM251.028 260.844H245.56L245.442 263.969H251.145L251.028 260.844ZM269.216 281V253.891H277.653V263.969H284.685V253.891H293.122V281H284.685V270.922H277.653V281H269.216ZM326.153 253.891V277.641L319.981 281H308.419L302.247 277.641V253.891H310.685V274.047H317.716V253.891H326.153ZM350.513 262.953L350.747 260.844H343.716V263.969H348.325L350.513 262.953ZM350.513 271.938L348.325 270.922H343.716V274.047H350.747L350.513 271.938ZM335.278 253.891H353.013L359.185 257.25L358.794 265.297L354.575 267.406L358.794 269.594L359.185 277.641L353.013 281H335.278V253.891ZM392.216 253.891V277.641L386.044 281H374.481L368.31 277.641V253.891H376.747V274.047H383.778V253.891H392.216ZM401.341 281V257.25L407.513 253.891H409.778L416.653 265.336V253.891H425.091V281H416.653L409.778 269.555V281H401.341ZM449.685 260.844H442.653V274.047H449.685V272.016L447.731 270.844H445.153V263.969H449.216L458.122 268.812V277.641L451.95 281H440.388L434.216 277.641V257.25L440.388 253.891H451.95L458.122 257.25V263.266H449.685V260.844Z" fill="white"/>
</g>
<mask id="path-30-outside-2_211_638" maskUnits="userSpaceOnUse" x="212" y="610" width="170" height="19" fill="black">
<rect fill="white" x="212" y="610" width="170" height="19"/>
<path d="M222.837 615.906H218.619V623.828H222.837V622.609L221.665 621.906H220.119V617.781H222.556L227.9 620.688V625.984L224.197 628H217.259L213.556 625.984V613.75L217.259 611.734H224.197L227.9 613.75V617.359H222.837V615.906ZM242.656 615.906H238.437V623.828H242.656V615.906ZM233.375 613.75L237.078 611.734H244.015L247.719 613.75V625.984L244.015 628H237.078L233.375 625.984V613.75ZM262.475 615.906H258.256V623.828H262.475V615.906ZM253.194 613.75L256.897 611.734H263.834L267.537 613.75V625.984L263.834 628H256.897L253.194 625.984V613.75ZM282.294 615.906H278.075V623.828H282.294V615.906ZM273.012 611.734H283.653L287.356 613.75V625.984L283.653 628H273.012V611.734ZM297.894 623.828H307.175V628H296.534L292.831 625.984V611.734H297.894V623.828ZM326.994 611.734V625.984L323.29 628H316.353L312.65 625.984V611.734H317.712V623.828H321.931V611.734H326.994ZM341.75 615.906H337.531V623.828H341.75V622.375H346.812V625.984L343.109 628H336.172L332.469 625.984V613.75L336.172 611.734H343.109L346.812 613.75V617.359H341.75V615.906ZM360.022 617.781L361.569 617.172L361.803 611.734H366.631L366.303 618.578L363.772 619.867L366.303 621.156L366.631 628H361.803L361.569 622.562L360.022 621.953H357.35V628H352.287V611.734H357.35V617.781H360.022ZM373.747 622.656L372.294 612.953L374.45 611.734H378.106L380.262 612.953L378.809 622.656H373.747ZM373.747 628V623.828H378.809V628H373.747Z"/>
</mask>
<path d="M222.837 615.906H223.837V614.906H222.837V615.906ZM218.619 615.906V614.906H217.619V615.906H218.619ZM218.619 623.828H217.619V624.828H218.619V623.828ZM222.837 623.828V624.828H223.837V623.828H222.837ZM222.837 622.609H223.837V622.043L223.352 621.752L222.837 622.609ZM221.665 621.906L222.18 621.049L221.942 620.906H221.665V621.906ZM220.119 621.906H219.119V622.906H220.119V621.906ZM220.119 617.781V616.781H219.119V617.781H220.119ZM222.556 617.781L223.034 616.903L222.81 616.781H222.556V617.781ZM227.9 620.688H228.9V620.093L228.378 619.809L227.9 620.688ZM227.9 625.984L228.378 626.863L228.9 626.579V625.984H227.9ZM224.197 628V629H224.451L224.675 628.878L224.197 628ZM217.259 628L216.781 628.878L217.005 629H217.259V628ZM213.556 625.984H212.556V626.579L213.078 626.863L213.556 625.984ZM213.556 613.75L213.078 612.872L212.556 613.156V613.75H213.556ZM217.259 611.734V610.734H217.005L216.781 610.856L217.259 611.734ZM224.197 611.734L224.675 610.856L224.451 610.734H224.197V611.734ZM227.9 613.75H228.9V613.156L228.378 612.872L227.9 613.75ZM227.9 617.359V618.359H228.9V617.359H227.9ZM222.837 617.359H221.837V618.359H222.837V617.359ZM222.837 615.906V614.906H218.619V615.906V616.906H222.837V615.906ZM218.619 615.906H217.619V623.828H218.619H219.619V615.906H218.619ZM218.619 623.828V624.828H222.837V623.828V622.828H218.619V623.828ZM222.837 623.828H223.837V622.609H222.837H221.837V623.828H222.837ZM222.837 622.609L223.352 621.752L222.18 621.049L221.665 621.906L221.151 622.764L222.323 623.467L222.837 622.609ZM221.665 621.906V620.906H220.119V621.906V622.906H221.665V621.906ZM220.119 621.906H221.119V617.781H220.119H219.119V621.906H220.119ZM220.119 617.781V618.781H222.556V617.781V616.781H220.119V617.781ZM222.556 617.781L222.078 618.66L227.422 621.566L227.9 620.688L228.378 619.809L223.034 616.903L222.556 617.781ZM227.9 620.688H226.9V625.984H227.9H228.9V620.688H227.9ZM227.9 625.984L227.422 625.106L223.719 627.122L224.197 628L224.675 628.878L228.378 626.863L227.9 625.984ZM224.197 628V627H217.259V628V629H224.197V628ZM217.259 628L217.737 627.122L214.034 625.106L213.556 625.984L213.078 626.863L216.781 628.878L217.259 628ZM213.556 625.984H214.556V613.75H213.556H212.556V625.984H213.556ZM213.556 613.75L214.034 614.628L217.737 612.613L217.259 611.734L216.781 610.856L213.078 612.872L213.556 613.75ZM217.259 611.734V612.734H224.197V611.734V610.734H217.259V611.734ZM224.197 611.734L223.719 612.613L227.422 614.628L227.9 613.75L228.378 612.872L224.675 610.856L224.197 611.734ZM227.9 613.75H226.9V617.359H227.9H228.9V613.75H227.9ZM227.9 617.359V616.359H222.837V617.359V618.359H227.9V617.359ZM222.837 617.359H223.837V615.906H222.837H221.837V617.359H222.837ZM242.656 615.906H243.656V614.906H242.656V615.906ZM238.437 615.906V614.906H237.437V615.906H238.437ZM238.437 623.828H237.437V624.828H238.437V623.828ZM242.656 623.828V624.828H243.656V623.828H242.656ZM233.375 613.75L232.897 612.872L232.375 613.156V613.75H233.375ZM237.078 611.734V610.734H236.823L236.6 610.856L237.078 611.734ZM244.015 611.734L244.493 610.856L244.27 610.734H244.015V611.734ZM247.719 613.75H248.719V613.156L248.197 612.872L247.719 613.75ZM247.719 625.984L248.197 626.863L248.719 626.579V625.984H247.719ZM244.015 628V629H244.27L244.493 628.878L244.015 628ZM237.078 628L236.6 628.878L236.823 629H237.078V628ZM233.375 625.984H232.375V626.579L232.897 626.863L233.375 625.984ZM242.656 615.906V614.906H238.437V615.906V616.906H242.656V615.906ZM238.437 615.906H237.437V623.828H238.437H239.437V615.906H238.437ZM238.437 623.828V624.828H242.656V623.828V622.828H238.437V623.828ZM242.656 623.828H243.656V615.906H242.656H241.656V623.828H242.656ZM233.375 613.75L233.853 614.628L237.556 612.613L237.078 611.734L236.6 610.856L232.897 612.872L233.375 613.75ZM237.078 611.734V612.734H244.015V611.734V610.734H237.078V611.734ZM244.015 611.734L243.537 612.613L247.24 614.628L247.719 613.75L248.197 612.872L244.493 610.856L244.015 611.734ZM247.719 613.75H246.719V625.984H247.719H248.719V613.75H247.719ZM247.719 625.984L247.24 625.106L243.537 627.122L244.015 628L244.493 628.878L248.197 626.863L247.719 625.984ZM244.015 628V627H237.078V628V629H244.015V628ZM237.078 628L237.556 627.122L233.853 625.106L233.375 625.984L232.897 626.863L236.6 628.878L237.078 628ZM233.375 625.984H234.375V613.75H233.375H232.375V625.984H233.375ZM262.475 615.906H263.475V614.906H262.475V615.906ZM258.256 615.906V614.906H257.256V615.906H258.256ZM258.256 623.828H257.256V624.828H258.256V623.828ZM262.475 623.828V624.828H263.475V623.828H262.475ZM253.194 613.75L252.715 612.872L252.194 613.156V613.75H253.194ZM256.897 611.734V610.734H256.642L256.419 610.856L256.897 611.734ZM263.834 611.734L264.312 610.856L264.089 610.734H263.834V611.734ZM267.537 613.75H268.537V613.156L268.015 612.872L267.537 613.75ZM267.537 625.984L268.015 626.863L268.537 626.579V625.984H267.537ZM263.834 628V629H264.089L264.312 628.878L263.834 628ZM256.897 628L256.419 628.878L256.642 629H256.897V628ZM253.194 625.984H252.194V626.579L252.715 626.863L253.194 625.984ZM262.475 615.906V614.906H258.256V615.906V616.906H262.475V615.906ZM258.256 615.906H257.256V623.828H258.256H259.256V615.906H258.256ZM258.256 623.828V624.828H262.475V623.828V622.828H258.256V623.828ZM262.475 623.828H263.475V615.906H262.475H261.475V623.828H262.475ZM253.194 613.75L253.672 614.628L257.375 612.613L256.897 611.734L256.419 610.856L252.715 612.872L253.194 613.75ZM256.897 611.734V612.734H263.834V611.734V610.734H256.897V611.734ZM263.834 611.734L263.356 612.613L267.059 614.628L267.537 613.75L268.015 612.872L264.312 610.856L263.834 611.734ZM267.537 613.75H266.537V625.984H267.537H268.537V613.75H267.537ZM267.537 625.984L267.059 625.106L263.356 627.122L263.834 628L264.312 628.878L268.015 626.863L267.537 625.984ZM263.834 628V627H256.897V628V629H263.834V628ZM256.897 628L257.375 627.122L253.672 625.106L253.194 625.984L252.715 626.863L256.419 628.878L256.897 628ZM253.194 625.984H254.194V613.75H253.194H252.194V625.984H253.194ZM282.294 615.906H283.294V614.906H282.294V615.906ZM278.075 615.906V614.906H277.075V615.906H278.075ZM278.075 623.828H277.075V624.828H278.075V623.828ZM282.294 623.828V624.828H283.294V623.828H282.294ZM273.012 611.734V610.734H272.012V611.734H273.012ZM283.653 611.734L284.131 610.856L283.907 610.734H283.653V611.734ZM287.356 613.75H288.356V613.156L287.834 612.872L287.356 613.75ZM287.356 625.984L287.834 626.863L288.356 626.579V625.984H287.356ZM283.653 628V629H283.907L284.131 628.878L283.653 628ZM273.012 628H272.012V629H273.012V628ZM282.294 615.906V614.906H278.075V615.906V616.906H282.294V615.906ZM278.075 615.906H277.075V623.828H278.075H279.075V615.906H278.075ZM278.075 623.828V624.828H282.294V623.828V622.828H278.075V623.828ZM282.294 623.828H283.294V615.906H282.294H281.294V623.828H282.294ZM273.012 611.734V612.734H283.653V611.734V610.734H273.012V611.734ZM283.653 611.734L283.175 612.613L286.878 614.628L287.356 613.75L287.834 612.872L284.131 610.856L283.653 611.734ZM287.356 613.75H286.356V625.984H287.356H288.356V613.75H287.356ZM287.356 625.984L286.878 625.106L283.175 627.122L283.653 628L284.131 628.878L287.834 626.863L287.356 625.984ZM283.653 628V627H273.012V628V629H283.653V628ZM273.012 628H274.012V611.734H273.012H272.012V628H273.012ZM297.894 623.828H296.894V624.828H297.894V623.828ZM307.175 623.828H308.175V622.828H307.175V623.828ZM307.175 628V629H308.175V628H307.175ZM296.534 628L296.056 628.878L296.28 629H296.534V628ZM292.831 625.984H291.831V626.579L292.353 626.863L292.831 625.984ZM292.831 611.734V610.734H291.831V611.734H292.831ZM297.894 611.734H298.894V610.734H297.894V611.734ZM297.894 623.828V624.828H307.175V623.828V622.828H297.894V623.828ZM307.175 623.828H306.175V628H307.175H308.175V623.828H307.175ZM307.175 628V627H296.534V628V629H307.175V628ZM296.534 628L297.012 627.122L293.309 625.106L292.831 625.984L292.353 626.863L296.056 628.878L296.534 628ZM292.831 625.984H293.831V611.734H292.831H291.831V625.984H292.831ZM292.831 611.734V612.734H297.894V611.734V610.734H292.831V611.734ZM297.894 611.734H296.894V623.828H297.894H298.894V611.734H297.894ZM326.994 611.734H327.994V610.734H326.994V611.734ZM326.994 625.984L327.472 626.863L327.994 626.579V625.984H326.994ZM323.29 628V629H323.545L323.768 628.878L323.29 628ZM316.353 628L315.875 628.878L316.098 629H316.353V628ZM312.65 625.984H311.65V626.579L312.172 626.863L312.65 625.984ZM312.65 611.734V610.734H311.65V611.734H312.65ZM317.712 611.734H318.712V610.734H317.712V611.734ZM317.712 623.828H316.712V624.828H317.712V623.828ZM321.931 623.828V624.828H322.931V623.828H321.931ZM321.931 611.734V610.734H320.931V611.734H321.931ZM326.994 611.734H325.994V625.984H326.994H327.994V611.734H326.994ZM326.994 625.984L326.515 625.106L322.812 627.122L323.29 628L323.768 628.878L327.472 626.863L326.994 625.984ZM323.29 628V627H316.353V628V629H323.29V628ZM316.353 628L316.831 627.122L313.128 625.106L312.65 625.984L312.172 626.863L315.875 628.878L316.353 628ZM312.65 625.984H313.65V611.734H312.65H311.65V625.984H312.65ZM312.65 611.734V612.734H317.712V611.734V610.734H312.65V611.734ZM317.712 611.734H316.712V623.828H317.712H318.712V611.734H317.712ZM317.712 623.828V624.828H321.931V623.828V622.828H317.712V623.828ZM321.931 623.828H322.931V611.734H321.931H320.931V623.828H321.931ZM321.931 611.734V612.734H326.994V611.734V610.734H321.931V611.734ZM341.75 615.906H342.75V614.906H341.75V615.906ZM337.531 615.906V614.906H336.531V615.906H337.531ZM337.531 623.828H336.531V624.828H337.531V623.828ZM341.75 623.828V624.828H342.75V623.828H341.75ZM341.75 622.375V621.375H340.75V622.375H341.75ZM346.812 622.375H347.812V621.375H346.812V622.375ZM346.812 625.984L347.29 626.863L347.812 626.579V625.984H346.812ZM343.109 628V629H343.364L343.587 628.878L343.109 628ZM336.172 628L335.694 628.878L335.917 629H336.172V628ZM332.469 625.984H331.469V626.579L331.99 626.863L332.469 625.984ZM332.469 613.75L331.99 612.872L331.469 613.156V613.75H332.469ZM336.172 611.734V610.734H335.917L335.694 610.856L336.172 611.734ZM343.109 611.734L343.587 610.856L343.364 610.734H343.109V611.734ZM346.812 613.75H347.812V613.156L347.29 612.872L346.812 613.75ZM346.812 617.359V618.359H347.812V617.359H346.812ZM341.75 617.359H340.75V618.359H341.75V617.359ZM341.75 615.906V614.906H337.531V615.906V616.906H341.75V615.906ZM337.531 615.906H336.531V623.828H337.531H338.531V615.906H337.531ZM337.531 623.828V624.828H341.75V623.828V622.828H337.531V623.828ZM341.75 623.828H342.75V622.375H341.75H340.75V623.828H341.75ZM341.75 622.375V623.375H346.812V622.375V621.375H341.75V622.375ZM346.812 622.375H345.812V625.984H346.812H347.812V622.375H346.812ZM346.812 625.984L346.334 625.106L342.631 627.122L343.109 628L343.587 628.878L347.29 626.863L346.812 625.984ZM343.109 628V627H336.172V628V629H343.109V628ZM336.172 628L336.65 627.122L332.947 625.106L332.469 625.984L331.99 626.863L335.694 628.878L336.172 628ZM332.469 625.984H333.469V613.75H332.469H331.469V625.984H332.469ZM332.469 613.75L332.947 614.628L336.65 612.613L336.172 611.734L335.694 610.856L331.99 612.872L332.469 613.75ZM336.172 611.734V612.734H343.109V611.734V610.734H336.172V611.734ZM343.109 611.734L342.631 612.613L346.334 614.628L346.812 613.75L347.29 612.872L343.587 610.856L343.109 611.734ZM346.812 613.75H345.812V617.359H346.812H347.812V613.75H346.812ZM346.812 617.359V616.359H341.75V617.359V618.359H346.812V617.359ZM341.75 617.359H342.75V615.906H341.75H340.75V617.359H341.75ZM360.022 617.781V618.781H360.212L360.388 618.712L360.022 617.781ZM361.569 617.172L361.935 618.102L362.54 617.864L362.568 617.215L361.569 617.172ZM361.803 611.734V610.734H360.845L360.804 611.691L361.803 611.734ZM366.631 611.734L367.63 611.782L367.68 610.734H366.631V611.734ZM366.303 618.578L366.757 619.469L367.274 619.206L367.302 618.626L366.303 618.578ZM363.772 619.867L363.318 618.976L361.568 619.867L363.318 620.758L363.772 619.867ZM366.303 621.156L367.302 621.108L367.274 620.529L366.757 620.265L366.303 621.156ZM366.631 628V629H367.68L367.63 627.952L366.631 628ZM361.803 628L360.804 628.043L360.845 629H361.803V628ZM361.569 622.562L362.568 622.519L362.54 621.87L361.935 621.632L361.569 622.562ZM360.022 621.953L360.388 621.023L360.212 620.953H360.022V621.953ZM357.35 621.953V620.953H356.35V621.953H357.35ZM357.35 628V629H358.35V628H357.35ZM352.287 628H351.287V629H352.287V628ZM352.287 611.734V610.734H351.287V611.734H352.287ZM357.35 611.734H358.35V610.734H357.35V611.734ZM357.35 617.781H356.35V618.781H357.35V617.781ZM360.022 617.781L360.388 618.712L361.935 618.102L361.569 617.172L361.202 616.241L359.655 616.851L360.022 617.781ZM361.569 617.172L362.568 617.215L362.802 611.777L361.803 611.734L360.804 611.691L360.569 617.129L361.569 617.172ZM361.803 611.734V612.734H366.631V611.734V610.734H361.803V611.734ZM366.631 611.734L365.632 611.686L365.304 618.53L366.303 618.578L367.302 618.626L367.63 611.782L366.631 611.734ZM366.303 618.578L365.849 617.687L363.318 618.976L363.772 619.867L364.225 620.758L366.757 619.469L366.303 618.578ZM363.772 619.867L363.318 620.758L365.849 622.047L366.303 621.156L366.757 620.265L364.225 618.976L363.772 619.867ZM366.303 621.156L365.304 621.204L365.632 628.048L366.631 628L367.63 627.952L367.302 621.108L366.303 621.156ZM366.631 628V627H361.803V628V629H366.631V628ZM361.803 628L362.802 627.957L362.568 622.519L361.569 622.562L360.569 622.606L360.804 628.043L361.803 628ZM361.569 622.562L361.935 621.632L360.388 621.023L360.022 621.953L359.655 622.884L361.202 623.493L361.569 622.562ZM360.022 621.953V620.953H357.35V621.953V622.953H360.022V621.953ZM357.35 621.953H356.35V628H357.35H358.35V621.953H357.35ZM357.35 628V627H352.287V628V629H357.35V628ZM352.287 628H353.287V611.734H352.287H351.287V628H352.287ZM352.287 611.734V612.734H357.35V611.734V610.734H352.287V611.734ZM357.35 611.734H356.35V617.781H357.35H358.35V611.734H357.35ZM357.35 617.781V618.781H360.022V617.781V616.781H357.35V617.781ZM373.747 622.656L372.758 622.804L372.885 623.656H373.747V622.656ZM372.294 612.953L371.801 612.083L371.203 612.421L371.305 613.101L372.294 612.953ZM374.45 611.734V610.734H374.187L373.958 610.864L374.45 611.734ZM378.106 611.734L378.598 610.864L378.369 610.734H378.106V611.734ZM380.262 612.953L381.251 613.101L381.353 612.421L380.754 612.083L380.262 612.953ZM378.809 622.656V623.656H379.671L379.798 622.804L378.809 622.656ZM373.747 628H372.747V629H373.747V628ZM373.747 623.828V622.828H372.747V623.828H373.747ZM378.809 623.828H379.809V622.828H378.809V623.828ZM378.809 628V629H379.809V628H378.809ZM373.747 622.656L374.736 622.508L373.283 612.805L372.294 612.953L371.305 613.101L372.758 622.804L373.747 622.656ZM372.294 612.953L372.786 613.824L374.942 612.605L374.45 611.734L373.958 610.864L371.801 612.083L372.294 612.953ZM374.45 611.734V612.734H378.106V611.734V610.734H374.45V611.734ZM378.106 611.734L377.614 612.605L379.77 613.824L380.262 612.953L380.754 612.083L378.598 610.864L378.106 611.734ZM380.262 612.953L379.273 612.805L377.82 622.508L378.809 622.656L379.798 622.804L381.251 613.101L380.262 612.953ZM378.809 622.656V621.656H373.747V622.656V623.656H378.809V622.656ZM373.747 628H374.747V623.828H373.747H372.747V628H373.747ZM373.747 623.828V624.828H378.809V623.828V622.828H373.747V623.828ZM378.809 623.828H377.809V628H378.809H379.809V623.828H378.809ZM378.809 628V627H373.747V628V629H378.809V628Z" fill="white" mask="url(#path-30-outside-2_211_638)"/>
<g filter="url(#filter1_d_211_638)">
<path d="M223.831 613.906H219.613V621.828H223.831V620.609L222.66 619.906H221.113V615.781H223.55L228.894 618.688V623.984L225.191 626H218.253L214.55 623.984V611.75L218.253 609.734H225.191L228.894 611.75V615.359H223.831V613.906ZM243.65 613.906H239.431V621.828H243.65V613.906ZM234.369 611.75L238.072 609.734H245.01L248.713 611.75V623.984L245.01 626H238.072L234.369 623.984V611.75ZM263.469 613.906H259.25V621.828H263.469V613.906ZM254.188 611.75L257.891 609.734H264.828L268.531 611.75V623.984L264.828 626H257.891L254.188 623.984V611.75ZM283.288 613.906H279.069V621.828H283.288V613.906ZM274.006 609.734H284.647L288.35 611.75V623.984L284.647 626H274.006V609.734ZM298.888 621.828H308.169V626H297.528L293.825 623.984V609.734H298.888V621.828ZM327.988 609.734V623.984L324.285 626H317.347L313.644 623.984V609.734H318.706V621.828H322.925V609.734H327.988ZM342.744 613.906H338.525V621.828H342.744V620.375H347.806V623.984L344.103 626H337.166L333.463 623.984V611.75L337.166 609.734H344.103L347.806 611.75V615.359H342.744V613.906ZM361.016 615.781L362.563 615.172L362.797 609.734H367.625L367.297 616.578L364.766 617.867L367.297 619.156L367.625 626H362.797L362.563 620.562L361.016 619.953H358.344V626H353.281V609.734H358.344V615.781H361.016ZM374.741 620.656L373.288 610.953L375.444 609.734H379.1L381.256 610.953L379.803 620.656H374.741ZM374.741 626V621.828H379.803V626H374.741Z" fill="white"/>
</g>
<line x1="161" y1="474.5" x2="434" y2="474.5" stroke="white"/>
<line x1="161" y1="540.5" x2="434" y2="540.5" stroke="white"/>
</g>
<defs>
<filter id="filter0_d_211_638" x="132.872" y="252.891" width="330.25" height="37.1094" filterUnits="userSpaceOnUse" color-interpolation-filters="sRGB">
<feFlood flood-opacity="0" result="BackgroundImageFix"/>
<feColorMatrix in="SourceAlpha" type="matrix" values="0 0 0 0 0 0 0 0 0 0 0 0 0 0 0 0 0 0 127 0" result="hardAlpha"/>
<feOffset dy="4"/>
<feGaussianBlur stdDeviation="2.5"/>
<feComposite in2="hardAlpha" operator="out"/>
<feColorMatrix type="matrix" values="0 0 0 0 1 0 0 0 0 1 0 0 0 0 1 0 0 0 0.5 0"/>
<feBlend mode="normal" in2="BackgroundImageFix" result="effect1_dropShadow_211_638"/>
<feBlend mode="normal" in="SourceGraphic" in2="effect1_dropShadow_211_638" result="shape"/>
</filter>
<filter id="filter1_d_211_638" x="209.55" y="608.734" width="176.706" height="26.2656" filterUnits="userSpaceOnUse" color-interpolation-filters="sRGB">
<feFlood flood-opacity="0" result="BackgroundImageFix"/>
<feColorMatrix in="SourceAlpha" type="matrix" values="0 0 0 0 0 0 0 0 0 0 0 0 0 0 0 0 0 0 127 0" result="hardAlpha"/>
<feOffset dy="4"/>
<feGaussianBlur stdDeviation="2.5"/>
<feComposite in2="hardAlpha" operator="out"/>
<feColorMatrix type="matrix" values="0 0 0 0 1 0 0 0 0 1 0 0 0 0 1 0 0 0 0.5 0"/>
<feBlend mode="normal" in2="BackgroundImageFix" result="effect1_dropShadow_211_638"/>
<feBlend mode="normal" in="SourceGraphic" in2="effect1_dropShadow_211_638" result="shape"/>
</filter>
<linearGradient id="paint0_linear_211_638" x1="297.5" y1="0" x2="297.5" y2="842" gradientUnits="userSpaceOnUse">
<stop stop-color="#343684"/>
<stop offset="1" stop-color="#660D41"/>
</linearGradient>
<linearGradient id="paint1_linear_211_638" x1="298.396" y1="0" x2="298.396" y2="357.5" gradientUnits="userSpaceOnUse">
<stop stop-color="#D9D9D9" stop-opacity="0.1"/>
<stop offset="1" stop-color="#737373" stop-opacity="0"/>
</linearGradient>
<linearGradient id="paint2_linear_211_638" x1="298.396" y1="842.5" x2="298.396" y2="485" gradientUnits="userSpaceOnUse">
<stop stop-color="#D9D9D9" stop-opacity="0.1"/>
<stop offset="1" stop-color="#737373" stop-opacity="0"/>
</linearGradient>
<linearGradient id="paint3_linear_211_638" x1="100" y1="36.5" x2="133" y2="36.5" gradientUnits="userSpaceOnUse">
<stop stop-color="#999999"/>
<stop offset="1" stop-color="white"/>
</linearGradient>
<linearGradient id="paint4_linear_211_638" x1="100" y1="36.5" x2="133" y2="36.5" gradientUnits="userSpaceOnUse">
<stop stop-color="#999999"/>
<stop offset="1" stop-color="white"/>
</linearGradient>
<linearGradient id="paint5_linear_211_638" x1="100" y1="36.5" x2="133" y2="36.5" gradientUnits="userSpaceOnUse">
<stop stop-color="#999999"/>
<stop offset="1" stop-color="white"/>
</linearGradient>
<linearGradient id="paint6_linear_211_638" x1="131" y1="37" x2="164" y2="37" gradientUnits="userSpaceOnUse">
<stop stop-color="#999999"/>
<stop offset="1" stop-color="white"/>
</linearGradient>
<linearGradient id="paint7_linear_211_638" x1="131" y1="37" x2="164" y2="37" gradientUnits="userSpaceOnUse">
<stop stop-color="#999999"/>
<stop offset="1" stop-color="white"/>
</linearGradient>
<linearGradient id="paint8_linear_211_638" x1="131" y1="37" x2="164" y2="37" gradientUnits="userSpaceOnUse">
<stop stop-color="#999999"/>
<stop offset="1" stop-color="white"/>
</linearGradient>
<linearGradient id="paint9_linear_211_638" x1="166" y1="31.5" x2="210" y2="31.5" gradientUnits="userSpaceOnUse">
<stop stop-color="#999999"/>
<stop offset="1" stop-color="white"/>
</linearGradient>
<linearGradient id="paint10_linear_211_638" x1="200" y1="31.5" x2="244" y2="31.5" gradientUnits="userSpaceOnUse">
<stop stop-color="#999999"/>
<stop offset="1" stop-color="white"/>
</linearGradient>
<linearGradient id="paint11_linear_211_638" x1="234" y1="31.5" x2="278" y2="31.5" gradientUnits="userSpaceOnUse">
<stop stop-color="#999999"/>
<stop offset="1" stop-color="white"/>
</linearGradient>
<linearGradient id="paint12_linear_211_638" x1="268" y1="31.5" x2="312" y2="31.5" gradientUnits="userSpaceOnUse">
<stop stop-color="#999999"/>
<stop offset="1" stop-color="white"/>
</linearGradient>
<linearGradient id="paint13_linear_211_638" x1="28" y1="84" x2="44" y2="84" gradientUnits="userSpaceOnUse">
<stop stop-color="#999999"/>
<stop offset="1" stop-color="white"/>
</linearGradient>
<linearGradient id="paint14_linear_211_638" x1="47" y1="49.75" x2="354" y2="49.75" gradientUnits="userSpaceOnUse">
<stop stop-color="#999999"/>
<stop offset="1" stop-color="white"/>
</linearGradient>
<linearGradient id="paint15_linear_211_638" x1="20" y1="84" x2="52" y2="84" gradientUnits="userSpaceOnUse">
<stop stop-color="#999999"/>
<stop offset="1" stop-color="white"/>
</linearGradient>
<linearGradient id="paint16_linear_211_638" x1="462" y1="775.5" x2="495" y2="775.5" gradientUnits="userSpaceOnUse">
<stop stop-color="white"/>
<stop offset="1" stop-color="#999999"/>
</linearGradient>
<linearGradient id="paint17_linear_211_638" x1="462" y1="775.5" x2="495" y2="775.5" gradientUnits="userSpaceOnUse">
<stop stop-color="white"/>
<stop offset="1" stop-color="#999999"/>
</linearGradient>
<linearGradient id="paint18_linear_211_638" x1="462" y1="775.5" x2="495" y2="775.5" gradientUnits="userSpaceOnUse">
<stop stop-color="white"/>
<stop offset="1" stop-color="#999999"/>
</linearGradient>
<linearGradient id="paint19_linear_211_638" x1="431" y1="775" x2="464" y2="775" gradientUnits="userSpaceOnUse">
<stop stop-color="white"/>
<stop offset="1" stop-color="#999999"/>
</linearGradient>
<linearGradient id="paint20_linear_211_638" x1="431" y1="775" x2="464" y2="775" gradientUnits="userSpaceOnUse">
<stop stop-color="white"/>
<stop offset="1" stop-color="#999999"/>
</linearGradient>
<linearGradient id="paint21_linear_211_638" x1="431" y1="775" x2="464" y2="775" gradientUnits="userSpaceOnUse">
<stop stop-color="white"/>
<stop offset="1" stop-color="#999999"/>
</linearGradient>
<linearGradient id="paint22_linear_211_638" x1="385" y1="780.5" x2="429" y2="780.5" gradientUnits="userSpaceOnUse">
<stop stop-color="white"/>
<stop offset="1" stop-color="#999999"/>
</linearGradient>
<linearGradient id="paint23_linear_211_638" x1="351" y1="780.5" x2="395" y2="780.5" gradientUnits="userSpaceOnUse">
<stop stop-color="white"/>
<stop offset="1" stop-color="#999999"/>
</linearGradient>
<linearGradient id="paint24_linear_211_638" x1="317" y1="780.5" x2="361" y2="780.5" gradientUnits="userSpaceOnUse">
<stop stop-color="white"/>
<stop offset="1" stop-color="#999999"/>
</linearGradient>
<linearGradient id="paint25_linear_211_638" x1="283" y1="780.5" x2="327" y2="780.5" gradientUnits="userSpaceOnUse">
<stop stop-color="white"/>
<stop offset="1" stop-color="#999999"/>
</linearGradient>
<linearGradient id="paint26_linear_211_638" x1="567" y1="728" x2="551" y2="728" gradientUnits="userSpaceOnUse">
<stop stop-color="white"/>
<stop offset="1" stop-color="#999999"/>
</linearGradient>
<linearGradient id="paint27_linear_211_638" x1="241" y1="762.25" x2="548" y2="762.25" gradientUnits="userSpaceOnUse">
<stop stop-color="white"/>
<stop offset="1" stop-color="#999999"/>
</linearGradient>
<linearGradient id="paint28_linear_211_638" x1="575" y1="728" x2="543" y2="728" gradientUnits="userSpaceOnUse">
<stop stop-color="white"/>
<stop offset="1" stop-color="#999999"/>
</linearGradient>
<clipPath id="clip0_211_638">
<rect width="595" height="842" fill="white"/>
</clipPath>
</defs>
</svg>
